<svg width="30" height="30" viewBox="0 0 30 30" fill="none" xmlns="http://www.w3.org/2000/svg">
<rect width="30" height="30" rx="15" fill="#2196F3"/>
<mask id="mask0_2829_55388" style="mask-type:alpha" maskUnits="userSpaceOnUse" x="5" y="5" width="20" height="20">
<rect x="5" y="5" width="20" height="20" fill="#D9D9D9"/>
</mask>
<g mask="url(#mask0_2829_55388)">
<path d="M10 20.8327H12.7885V16.634C12.7885 16.4207 12.8607 16.2418 13.005 16.0973C13.1494 15.953 13.3283 15.8809 13.5417 15.8809H16.4583C16.6717 15.8809 16.8506 15.953 16.995 16.0973C17.1393 16.2418 17.2115 16.4207 17.2115 16.634V20.8327H20V13.4609C20 13.4182 19.9906 13.3795 19.9719 13.3448C19.9533 13.3101 19.9279 13.2793 19.8958 13.2525L15.1523 9.6869C15.1095 9.64954 15.0587 9.63086 15 9.63086C14.9412 9.63086 14.8905 9.64954 14.8477 9.6869L10.1042 13.2525C10.0721 13.2793 10.0467 13.3101 10.0281 13.3448C10.0094 13.3795 10 13.4182 10 13.4609V20.8327ZM8.75 20.8327V13.4609C8.75 13.2224 8.80333 12.9965 8.91 12.7832C9.01681 12.5697 9.16431 12.3939 9.3525 12.2559L14.0963 8.68211C14.3594 8.48128 14.6603 8.38086 14.9988 8.38086C15.3372 8.38086 15.6389 8.48128 15.9037 8.68211L20.6475 12.2559C20.8357 12.3939 20.9832 12.5697 21.09 12.7832C21.1967 12.9965 21.25 13.2224 21.25 13.4609V20.8327C21.25 21.1736 21.1269 21.4671 20.8806 21.7134C20.6344 21.9596 20.3408 22.0827 20 22.0827H16.7148C16.5013 22.0827 16.3224 22.0105 16.1781 21.8661C16.0337 21.7218 15.9615 21.5429 15.9615 21.3294V17.1309H14.0385V21.3294C14.0385 21.5429 13.9663 21.7218 13.8219 21.8661C13.6776 22.0105 13.4987 22.0827 13.2852 22.0827H10C9.65917 22.0827 9.36562 21.9596 9.11937 21.7134C8.87312 21.4671 8.75 21.1736 8.75 20.8327Z" fill="white"/>
</g>
</svg>
