<svg width="22" height="22" viewBox="0 0 22 22" fill="none" xmlns="http://www.w3.org/2000/svg">
<rect x="0.75" y="0.75" width="20.5" height="20.5" rx="10.25" stroke="#333333" stroke-width="1.5"/>
<mask id="mask0_1607_8127" style="mask-type:alpha" maskUnits="userSpaceOnUse" x="2" y="2" width="18" height="18">
<rect x="2" y="2" width="18" height="18" fill="#D9D9D9"/>
</mask>
<g mask="url(#mask0_1607_8127)">
<path d="M14.4702 11.5628H5.9375C5.77789 11.5628 5.64424 11.5089 5.53655 11.4012C5.42885 11.2935 5.375 11.1599 5.375 11.0003C5.375 10.8407 5.42885 10.707 5.53655 10.5993C5.64424 10.4916 5.77789 10.4378 5.9375 10.4378H14.4702L10.5933 6.56087C10.4817 6.44933 10.4267 6.3188 10.4281 6.16929C10.4296 6.01977 10.4885 5.88683 10.6048 5.7705C10.7211 5.66185 10.8529 5.6056 11 5.60175C11.1471 5.5979 11.2788 5.65415 11.3952 5.7705L16.1504 10.5258C16.2206 10.596 16.2701 10.67 16.299 10.7479C16.3278 10.8258 16.3423 10.9099 16.3423 11.0003C16.3423 11.0907 16.3278 11.1748 16.299 11.2527C16.2701 11.3306 16.2206 11.4046 16.1504 11.4748L11.3952 16.2301C11.2913 16.3339 11.1627 16.387 11.0094 16.3894C10.856 16.3918 10.7211 16.3387 10.6048 16.2301C10.4885 16.1137 10.4303 15.9801 10.4303 15.8291C10.4303 15.6782 10.4885 15.5445 10.6048 15.4282L14.4702 11.5628Z" fill="#333333"/>
</g>
</svg>
