<svg width="24" height="24" viewBox="0 0 19 18" fill="none" xmlns="http://www.w3.org/2000/svg">
<path d="M8 2.8125C7.25408 2.8125 6.53871 3.10882 6.01126 3.63626C5.48382 4.16371 5.1875 4.87908 5.1875 5.625C5.1875 6.37092 5.48382 7.08629 6.01126 7.61374C6.53871 8.14118 7.25408 8.4375 8 8.4375C8.74592 8.4375 9.46129 8.14118 9.98874 7.61374C10.5162 7.08629 10.8125 6.37092 10.8125 5.625C10.8125 4.87908 10.5162 4.16371 9.98874 3.63626C9.46129 3.10882 8.74592 2.8125 8 2.8125ZM5 9.9375C4.25408 9.9375 3.53871 10.2338 3.01126 10.7613C2.48382 11.2887 2.1875 12.0041 2.1875 12.75V13.641C2.1875 14.2065 2.597 14.688 3.155 14.7788C4.8125 15.0495 6.48725 15.1807 8.162 15.1718C8.279 15.171 8.3495 15.0413 8.2925 14.9393C7.85341 14.156 7.62352 13.2729 7.625 12.375C7.625 11.7847 7.7225 11.217 7.9025 10.6875C7.91029 10.6641 7.91255 10.6392 7.90911 10.6148C7.90567 10.5904 7.89662 10.5671 7.88267 10.5467C7.86872 10.5264 7.85025 10.5096 7.82871 10.4975C7.80717 10.4855 7.78314 10.4787 7.7585 10.4775C7.26684 10.4559 6.78039 10.3676 6.3125 10.215L5.663 10.002C5.53149 9.9592 5.39405 9.93743 5.25575 9.9375H5ZM13.4375 11.25C13.4375 11.1008 13.3782 10.9577 13.2727 10.8523C13.1673 10.7468 13.0242 10.6875 12.875 10.6875C12.7258 10.6875 12.5827 10.7468 12.4773 10.8523C12.3718 10.9577 12.3125 11.1008 12.3125 11.25V12.5798C12.3125 12.7598 12.3987 12.9285 12.5442 13.0343L13.2942 13.5803C13.415 13.668 13.5656 13.7041 13.713 13.6808C13.8604 13.6574 13.9925 13.5765 14.0802 13.4557C14.168 13.335 14.2041 13.1844 14.1808 13.037C14.1574 12.8896 14.0765 12.7575 13.9557 12.6698L13.4375 12.2933V11.25Z" fill="white"/>
<path fill-rule="evenodd" clip-rule="evenodd" d="M12.875 16.5C13.969 16.5 15.0182 16.0654 15.7918 15.2918C16.5654 14.5182 17 13.469 17 12.375C17 11.281 16.5654 10.2318 15.7918 9.45818C15.0182 8.6846 13.969 8.25 12.875 8.25C11.781 8.25 10.7318 8.6846 9.95818 9.45818C9.1846 10.2318 8.75 11.281 8.75 12.375C8.75 13.469 9.1846 14.5182 9.95818 15.2918C10.7318 16.0654 11.781 16.5 12.875 16.5ZM12.875 15.375C13.6706 15.375 14.4337 15.0589 14.9963 14.4963C15.5589 13.9337 15.875 13.1706 15.875 12.375C15.875 11.5794 15.5589 10.8163 14.9963 10.2537C14.4337 9.69107 13.6706 9.375 12.875 9.375C12.0794 9.375 11.3163 9.69107 10.7537 10.2537C10.1911 10.8163 9.875 11.5794 9.875 12.375C9.875 13.1706 10.1911 13.9337 10.7537 14.4963C11.3163 15.0589 12.0794 15.375 12.875 15.375Z" fill="#F5FAF8"/>
</svg>
