<svg width="19" height="18" viewBox="0 0 19 18" fill="none" xmlns="http://www.w3.org/2000/svg">
<rect x="0.5" width="18" height="18" rx="9" fill="#E0A804"/>
<mask id="mask0_1958_23309" style="mask-type:alpha" maskUnits="userSpaceOnUse" x="0" y="0" width="19" height="18">
<rect x="0.5" width="18" height="18" fill="#D9D9D9"/>
</mask>
<g mask="url(#mask0_1958_23309)">
<path d="M9.50072 10.9963C9.41033 10.9963 9.3262 10.9819 9.24833 10.953C9.17044 10.9242 9.0964 10.8747 9.02622 10.8045L5.65555 7.43381C5.5517 7.32997 5.49857 7.19945 5.49617 7.04224C5.49376 6.88502 5.54688 6.75209 5.65555 6.64344C5.7642 6.53479 5.89592 6.48047 6.05072 6.48047C6.20552 6.48047 6.33725 6.53479 6.4459 6.64344L9.50072 9.69827L12.5555 6.64344C12.6594 6.53961 12.7899 6.48648 12.9471 6.48407C13.1043 6.48167 13.2372 6.53479 13.3459 6.64344C13.4546 6.75209 13.5089 6.88382 13.5089 7.03864C13.5089 7.19344 13.4546 7.32516 13.3459 7.43381L9.97523 10.8045C9.90504 10.8747 9.831 10.9242 9.75312 10.953C9.67524 10.9819 9.59111 10.9963 9.50072 10.9963Z" fill="#1C1B1F"/>
</g>
</svg>
