<svg width="18" height="18" viewBox="0 0 18 18" fill="none" xmlns="http://www.w3.org/2000/svg">
<mask id="mask0_1607_8119" style="mask-type:alpha" maskUnits="userSpaceOnUse" x="0" y="0" width="18" height="18">
<rect width="18" height="18" fill="#D9D9D9"/>
</mask>
<g mask="url(#mask0_1607_8119)">
<path d="M3.1875 13.2253C3.02813 13.2253 2.89453 13.1714 2.78672 13.0635C2.67891 12.9557 2.625 12.822 2.625 12.6626C2.625 12.5031 2.67891 12.3696 2.78672 12.2619C2.89453 12.1542 3.02813 12.1004 3.1875 12.1004H14.8125C14.9718 12.1004 15.1054 12.1543 15.2132 12.2621C15.3211 12.37 15.375 12.5036 15.375 12.6631C15.375 12.8225 15.3211 12.9561 15.2132 13.0638C15.1054 13.1715 14.9718 13.2253 14.8125 13.2253H3.1875ZM3.1875 9.56187C3.02813 9.56187 2.89453 9.50794 2.78672 9.40009C2.67891 9.29223 2.625 9.15858 2.625 8.99914C2.625 8.83969 2.67891 8.70612 2.78672 8.59844C2.89453 8.49075 3.02813 8.43691 3.1875 8.43691H14.8125C14.9718 8.43691 15.1054 8.49083 15.2132 8.59868C15.3211 8.70654 15.375 8.84019 15.375 8.99963C15.375 9.15908 15.3211 9.29265 15.2132 9.40034C15.1054 9.50802 14.9718 9.56187 14.8125 9.56187H3.1875ZM3.1875 5.89842C3.02813 5.89842 2.89453 5.84449 2.78672 5.73662C2.67891 5.62877 2.625 5.49512 2.625 5.33567C2.625 5.17624 2.67891 5.04267 2.78672 4.93499C2.89453 4.82729 3.02813 4.77344 3.1875 4.77344H14.8125C14.9718 4.77344 15.1054 4.82737 15.2132 4.93523C15.3211 5.04309 15.375 5.17674 15.375 5.33618C15.375 5.49563 15.3211 5.6292 15.2132 5.73689C15.1054 5.84457 14.9718 5.89842 14.8125 5.89842H3.1875Z" fill="#333333"/>
</g>
</svg>
