<svg width="19" height="18" viewBox="0 0 19 18" fill="none" xmlns="http://www.w3.org/2000/svg">
<mask id="mask0_2044_13228" style="mask-type:alpha" maskUnits="userSpaceOnUse" x="0" y="0" width="19" height="18">
<rect x="0.5" width="18" height="18" fill="#D9D9D9"/>
</mask>
<g mask="url(#mask0_2044_13228)">
</g>
<mask id="mask1_2044_13228" style="mask-type:alpha" maskUnits="userSpaceOnUse" x="0" y="0" width="19" height="18">
<rect x="0.5" width="18" height="18" fill="#D9D9D9"/>
</mask>
<g mask="url(#mask1_2044_13228)">
<path d="M3.73078 14.625C3.35193 14.625 3.03125 14.4937 2.76875 14.2312C2.50625 13.9687 2.375 13.648 2.375 13.2692V4.73078C2.375 4.35193 2.50625 4.03125 2.76875 3.76875C3.03125 3.50625 3.35193 3.375 3.73078 3.375H15.2692C15.648 3.375 15.9687 3.50625 16.2312 3.76875C16.4937 4.03125 16.625 4.35193 16.625 4.73078V13.2692C16.625 13.648 16.4937 13.9687 16.2312 14.2312C15.9687 14.4937 15.648 14.625 15.2692 14.625H3.73078ZM15.5 5.58169L9.86488 9.18891C9.80719 9.22159 9.74758 9.24731 9.68604 9.26606C9.6245 9.28481 9.56248 9.29419 9.49998 9.29419C9.43748 9.29419 9.37546 9.28481 9.31393 9.26606C9.25239 9.24731 9.19278 9.22159 9.13509 9.18891L3.49998 5.58169V13.2692C3.49998 13.3365 3.52162 13.3918 3.56489 13.4351C3.60817 13.4783 3.66346 13.5 3.73078 13.5H15.2692C15.3365 13.5 15.3918 13.4783 15.4351 13.4351C15.4783 13.3918 15.5 13.3365 15.5 13.2692V5.58169ZM9.49998 8.24998L15.3846 4.49998H3.61537L9.49998 8.24998ZM3.49998 5.75475V4.89733V4.91968V4.89589V5.75475Z" fill="black" fill-opacity="0.56"/>
</g>
</svg>
