<svg width="20" height="20" viewBox="0 0 20 20" fill="none" xmlns="http://www.w3.org/2000/svg">
<mask id="mask0_2825_19600" style="mask-type:alpha" maskUnits="userSpaceOnUse" x="0" y="0" width="20" height="20">
<rect width="20" height="20" fill="#D9D9D9"/>
</mask>
<g mask="url(#mask0_2825_19600)">
<path d="M9.37565 10.6256H5.20898C5.0319 10.6256 4.88346 10.5657 4.76367 10.4459C4.64388 10.326 4.58398 10.1775 4.58398 10.0004C4.58398 9.82319 4.64388 9.67478 4.76367 9.55513C4.88346 9.43548 5.0319 9.37565 5.20898 9.37565H9.37565V5.20898C9.37565 5.0319 9.43557 4.88346 9.5554 4.76367C9.67525 4.64388 9.82375 4.58398 10.0009 4.58398C10.1781 4.58398 10.3265 4.64388 10.4461 4.76367C10.5658 4.88346 10.6256 5.0319 10.6256 5.20898V9.37565H14.7923C14.9694 9.37565 15.1178 9.43557 15.2376 9.5554C15.3574 9.67525 15.4173 9.82375 15.4173 10.0009C15.4173 10.1781 15.3574 10.3265 15.2376 10.4461C15.1178 10.5658 14.9694 10.6256 14.7923 10.6256H10.6256V14.7923C10.6256 14.9694 10.5657 15.1178 10.4459 15.2376C10.326 15.3574 10.1775 15.4173 10.0004 15.4173C9.82319 15.4173 9.67478 15.3574 9.55513 15.2376C9.43548 15.1178 9.37565 14.9694 9.37565 14.7923V10.6256Z" fill="#2196F3"/>
</g>
</svg>

