<svg width="19" height="18" viewBox="0 0 19 18" fill="none" xmlns="http://www.w3.org/2000/svg">
<mask id="mask0_1348_5243" style="mask-type:alpha" maskUnits="userSpaceOnUse" x="0" y="0" width="19" height="18">
<rect x="0.5" width="18" height="18" fill="#D9D9D9"/>
</mask>
<g mask="url(#mask0_1348_5243)">
<path d="M7.24998 12.0438C6.76826 12.0438 6.35936 11.8758 6.0233 11.5397C5.68725 11.2037 5.51922 10.7948 5.51922 10.3131C5.51922 9.83133 5.68725 9.42244 6.0233 9.08639C6.35936 8.75033 6.76826 8.5823 7.24998 8.5823C7.73171 8.5823 8.1406 8.75033 8.47666 9.08639C8.81271 9.42244 8.98074 9.83133 8.98074 10.3131C8.98074 10.7948 8.81271 11.2037 8.47666 11.5397C8.1406 11.8758 7.73171 12.0438 7.24998 12.0438ZM4.48078 16.1256C4.10193 16.1256 3.78125 15.9943 3.51875 15.7318C3.25625 15.4693 3.125 15.1486 3.125 14.7698V4.73137C3.125 4.35252 3.25625 4.03184 3.51875 3.76934C3.78125 3.50684 4.10193 3.37559 4.48078 3.37559H5.51924V2.36596C5.51924 2.20155 5.57429 2.06429 5.68439 1.95419C5.79448 1.84411 5.93174 1.78906 6.09616 1.78906C6.26058 1.78906 6.39783 1.84411 6.50793 1.95419C6.61802 2.06429 6.67306 2.20155 6.67306 2.36596V3.37559H12.3557V2.35154C12.3557 2.19193 12.4096 2.05828 12.5173 1.95059C12.625 1.84291 12.7586 1.78906 12.9182 1.78906C13.0778 1.78906 13.2115 1.84291 13.3192 1.95059C13.4269 2.05828 13.4807 2.19193 13.4807 2.35154V3.37559H14.5192C14.898 3.37559 15.2187 3.50684 15.4812 3.76934C15.7437 4.03184 15.875 4.35252 15.875 4.73137V14.7698C15.875 15.1486 15.7437 15.4693 15.4812 15.7318C15.2187 15.9943 14.898 16.1256 14.5192 16.1256H4.48078ZM4.48078 15.0006H14.5192C14.5769 15.0006 14.6298 14.9765 14.6779 14.9285C14.7259 14.8804 14.75 14.8275 14.75 14.7698V7.73137H4.24998V14.7698C4.24998 14.8275 4.27402 14.8804 4.32209 14.9285C4.37018 14.9765 4.42308 15.0006 4.48078 15.0006ZM4.24998 6.60639H14.75V4.73137C14.75 4.67367 14.7259 4.62078 14.6779 4.57269C14.6298 4.52461 14.5769 4.50058 14.5192 4.50058H4.48078C4.42308 4.50058 4.37018 4.52461 4.32209 4.57269C4.27402 4.62078 4.24998 4.67367 4.24998 4.73137V6.60639Z" fill="#C2185B"/>
</g>
</svg>
