<svg width="20" height="20" viewBox="0 0 16 17" fill="none" xmlns="http://www.w3.org/2000/svg">
<mask id="mask0_902_6237" style="mask-type:alpha" maskUnits="userSpaceOnUse" x="0" y="0" width="16" height="17">
<rect y="0.5" width="16" height="16" fill="#D9D9D9"/>
</mask>
<g mask="url(#mask0_902_6237)">
<g filter="url(#filter0_f_902_6237)">
<circle cx="7.99913" cy="10.2775" r="4.44444" fill="#E37400"/>
</g>
<path d="M3.33333 15.1663C2.96667 15.1663 2.65278 15.0358 2.39167 14.7747C2.13056 14.5136 2 14.1997 2 13.833V4.49967C2 4.13301 2.13056 3.81912 2.39167 3.55801C2.65278 3.2969 2.96667 3.16634 3.33333 3.16634H4V2.49967C4 2.31079 4.06389 2.15245 4.19167 2.02467C4.31944 1.8969 4.47778 1.83301 4.66667 1.83301C4.85556 1.83301 5.01389 1.8969 5.14167 2.02467C5.26944 2.15245 5.33333 2.31079 5.33333 2.49967V3.16634H10.6667V2.49967C10.6667 2.31079 10.7306 2.15245 10.8583 2.02467C10.9861 1.8969 11.1444 1.83301 11.3333 1.83301C11.5222 1.83301 11.6806 1.8969 11.8083 2.02467C11.9361 2.15245 12 2.31079 12 2.49967V3.16634H12.6667C13.0333 3.16634 13.3472 3.2969 13.6083 3.55801C13.8694 3.81912 14 4.13301 14 4.49967V13.833C14 14.1997 13.8694 14.5136 13.6083 14.7747C13.3472 15.0358 13.0333 15.1663 12.6667 15.1663H3.33333ZM3.33333 13.833H12.6667V7.16634H3.33333V13.833ZM3.33333 5.83301H12.6667V4.49967H3.33333V5.83301ZM8 9.83301C7.81111 9.83301 7.65278 9.76912 7.525 9.64134C7.39722 9.51356 7.33333 9.35523 7.33333 9.16634C7.33333 8.97745 7.39722 8.81912 7.525 8.69134C7.65278 8.56356 7.81111 8.49967 8 8.49967C8.18889 8.49967 8.34722 8.56356 8.475 8.69134C8.60278 8.81912 8.66667 8.97745 8.66667 9.16634C8.66667 9.35523 8.60278 9.51356 8.475 9.64134C8.34722 9.76912 8.18889 9.83301 8 9.83301ZM5.33333 9.83301C5.14444 9.83301 4.98611 9.76912 4.85833 9.64134C4.73056 9.51356 4.66667 9.35523 4.66667 9.16634C4.66667 8.97745 4.73056 8.81912 4.85833 8.69134C4.98611 8.56356 5.14444 8.49967 5.33333 8.49967C5.52222 8.49967 5.68056 8.56356 5.80833 8.69134C5.93611 8.81912 6 8.97745 6 9.16634C6 9.35523 5.93611 9.51356 5.80833 9.64134C5.68056 9.76912 5.52222 9.83301 5.33333 9.83301ZM10.6667 9.83301C10.4778 9.83301 10.3194 9.76912 10.1917 9.64134C10.0639 9.51356 10 9.35523 10 9.16634C10 8.97745 10.0639 8.81912 10.1917 8.69134C10.3194 8.56356 10.4778 8.49967 10.6667 8.49967C10.8556 8.49967 11.0139 8.56356 11.1417 8.69134C11.2694 8.81912 11.3333 8.97745 11.3333 9.16634C11.3333 9.35523 11.2694 9.51356 11.1417 9.64134C11.0139 9.76912 10.8556 9.83301 10.6667 9.83301ZM8 12.4997C7.81111 12.4997 7.65278 12.4358 7.525 12.308C7.39722 12.1802 7.33333 12.0219 7.33333 11.833C7.33333 11.6441 7.39722 11.4858 7.525 11.358C7.65278 11.2302 7.81111 11.1663 8 11.1663C8.18889 11.1663 8.34722 11.2302 8.475 11.358C8.60278 11.4858 8.66667 11.6441 8.66667 11.833C8.66667 12.0219 8.60278 12.1802 8.475 12.308C8.34722 12.4358 8.18889 12.4997 8 12.4997ZM5.33333 12.4997C5.14444 12.4997 4.98611 12.4358 4.85833 12.308C4.73056 12.1802 4.66667 12.0219 4.66667 11.833C4.66667 11.6441 4.73056 11.4858 4.85833 11.358C4.98611 11.2302 5.14444 11.1663 5.33333 11.1663C5.52222 11.1663 5.68056 11.2302 5.80833 11.358C5.93611 11.4858 6 11.6441 6 11.833C6 12.0219 5.93611 12.1802 5.80833 12.308C5.68056 12.4358 5.52222 12.4997 5.33333 12.4997ZM10.6667 12.4997C10.4778 12.4997 10.3194 12.4358 10.1917 12.308C10.0639 12.1802 10 12.0219 10 11.833C10 11.6441 10.0639 11.4858 10.1917 11.358C10.3194 11.2302 10.4778 11.1663 10.6667 11.1663C10.8556 11.1663 11.0139 11.2302 11.1417 11.358C11.2694 11.4858 11.3333 11.6441 11.3333 11.833C11.3333 12.0219 11.2694 12.1802 11.1417 12.308C11.0139 12.4358 10.8556 12.4997 10.6667 12.4997Z" fill="#737373"/>
</g>
<defs>
<filter id="filter0_f_902_6237" x="-5.44531" y="-3.16699" width="26.8887" height="26.8887" filterUnits="userSpaceOnUse" color-interpolation-filters="sRGB">
<feFlood flood-opacity="0" result="BackgroundImageFix"/>
<feBlend mode="normal" in="SourceGraphic" in2="BackgroundImageFix" result="shape"/>
<feGaussianBlur stdDeviation="4.5" result="effect1_foregroundBlur_902_6237"/>
</filter>
</defs>
</svg>
