<svg width="18" height="18" viewBox="0 0 18 18" fill="none" xmlns="http://www.w3.org/2000/svg">
<mask id="mask0_1329_7451" style="mask-type:alpha" maskUnits="userSpaceOnUse" x="0" y="0" width="18" height="18">
<rect width="18" height="18" fill="#D9D9D9"/>
</mask>
<g mask="url(#mask0_1329_7451)">
<path d="M9.00156 10.0516L5.32656 13.7266C5.18906 13.8641 5.01406 13.9328 4.80156 13.9328C4.58906 13.9328 4.41406 13.8641 4.27656 13.7266C4.13906 13.5891 4.07031 13.4141 4.07031 13.2016C4.07031 12.9891 4.13906 12.8141 4.27656 12.6766L7.95156 9.00156L4.27656 5.32656C4.13906 5.18906 4.07031 5.01406 4.07031 4.80156C4.07031 4.58906 4.13906 4.41406 4.27656 4.27656C4.41406 4.13906 4.58906 4.07031 4.80156 4.07031C5.01406 4.07031 5.18906 4.13906 5.32656 4.27656L9.00156 7.95156L12.6766 4.27656C12.8141 4.13906 12.9891 4.07031 13.2016 4.07031C13.4141 4.07031 13.5891 4.13906 13.7266 4.27656C13.8641 4.41406 13.9328 4.58906 13.9328 4.80156C13.9328 5.01406 13.8641 5.18906 13.7266 5.32656L10.0516 9.00156L13.7266 12.6766C13.8641 12.8141 13.9328 12.9891 13.9328 13.2016C13.9328 13.4141 13.8641 13.5891 13.7266 13.7266C13.5891 13.8641 13.4141 13.9328 13.2016 13.9328C12.9891 13.9328 12.8141 13.8641 12.6766 13.7266L9.00156 10.0516Z" fill="#333333"/>
</g>
</svg>
