<svg width="10" height="10" viewBox="0 0 10 10" fill="none" xmlns="http://www.w3.org/2000/svg">
<path d="M5.00052 5.93288L1.73385 9.19954C1.61163 9.32177 1.45608 9.38288 1.26719 9.38288C1.0783 9.38288 0.922743 9.32177 0.800521 9.19954C0.678299 9.07732 0.617188 8.92177 0.617188 8.73288C0.617188 8.54399 0.678299 8.38843 0.800521 8.26621L4.06719 4.99954L0.800521 1.73288C0.678299 1.61066 0.617188 1.4551 0.617188 1.26621C0.617188 1.07732 0.678299 0.921767 0.800521 0.799544C0.922743 0.677322 1.0783 0.616211 1.26719 0.616211C1.45608 0.616211 1.61163 0.677322 1.73385 0.799544L5.00052 4.06621L8.26719 0.799544C8.38941 0.677322 8.54497 0.616211 8.73385 0.616211C8.92274 0.616211 9.0783 0.677322 9.20052 0.799544C9.32274 0.921767 9.38385 1.07732 9.38385 1.26621C9.38385 1.4551 9.32274 1.61066 9.20052 1.73288L5.93385 4.99954L9.20052 8.26621C9.32274 8.38843 9.38385 8.54399 9.38385 8.73288C9.38385 8.92177 9.32274 9.07732 9.20052 9.19954C9.0783 9.32177 8.92274 9.38288 8.73385 9.38288C8.54497 9.38288 8.38941 9.32177 8.26719 9.19954L5.00052 5.93288Z" fill="white"/>
</svg>
