<svg width="20" height="20" viewBox="0 0 20 20" fill="none" xmlns="http://www.w3.org/2000/svg">
<mask id="mask0_2646_24765" style="mask-type:alpha" maskUnits="userSpaceOnUse" x="0" y="0" width="20" height="20">
<rect width="20" height="20" fill="#D9D9D9"/>
</mask>
<g mask="url(#mask0_2646_24765)">
<path d="M6.08975 17.0841C5.67549 17.0841 5.32085 16.9366 5.02585 16.6416C4.73084 16.3466 4.58333 15.992 4.58333 15.5777V5.00082H4.375C4.19792 5.00082 4.04948 4.94089 3.92969 4.82105C3.8099 4.70121 3.75 4.55271 3.75 4.37555C3.75 4.19839 3.8099 4.04999 3.92969 3.93034C4.04948 3.81067 4.19792 3.75084 4.375 3.75084H7.49998C7.49998 3.54678 7.57183 3.37291 7.71552 3.22921C7.85922 3.08552 8.03309 3.01367 8.23715 3.01367H11.7628C11.9669 3.01367 12.1407 3.08552 12.2844 3.22921C12.4281 3.37291 12.5 3.54678 12.5 3.75084H15.625C15.802 3.75084 15.9505 3.81076 16.0703 3.93061C16.1901 4.05046 16.25 4.19896 16.25 4.37611C16.25 4.55328 16.1901 4.70169 16.0703 4.82134C15.9505 4.94099 15.802 5.00082 15.625 5.00082H15.4166V15.5777C15.4166 15.992 15.2691 16.3466 14.9741 16.6416C14.6791 16.9366 14.3245 17.0841 13.9102 17.0841H6.08975ZM14.1666 5.00082H5.83331V15.5777C5.83331 15.6525 5.85735 15.7139 5.90544 15.762C5.95352 15.8101 6.01496 15.8342 6.08975 15.8342H13.9102C13.985 15.8342 14.0464 15.8101 14.0945 15.762C14.1426 15.7139 14.1666 15.6525 14.1666 15.5777V5.00082ZM8.46181 14.1675C8.63897 14.1675 8.78737 14.1076 8.90702 13.9878C9.02669 13.868 9.08652 13.7196 9.08652 13.5425V7.29246C9.08652 7.11539 9.0266 6.96696 8.90675 6.84717C8.7869 6.72738 8.6384 6.66748 8.46125 6.66748C8.28408 6.66748 8.13567 6.72738 8.01602 6.84717C7.89637 6.96696 7.83654 7.11539 7.83654 7.29246V13.5425C7.83654 13.7196 7.89647 13.868 8.01631 13.9878C8.13615 14.1076 8.28465 14.1675 8.46181 14.1675ZM11.5387 14.1675C11.7159 14.1675 11.8643 14.1076 11.9839 13.9878C12.1036 13.868 12.1634 13.7196 12.1634 13.5425V7.29246C12.1634 7.11539 12.1035 6.96696 11.9836 6.84717C11.8638 6.72738 11.7153 6.66748 11.5381 6.66748C11.361 6.66748 11.2126 6.72738 11.0929 6.84717C10.9733 6.96696 10.9134 7.11539 10.9134 7.29246V13.5425C10.9134 13.7196 10.9734 13.868 11.0932 13.9878C11.2131 14.1076 11.3616 14.1675 11.5387 14.1675Z" fill="#D32F2F"/>
</g>
</svg>


