<svg width="20" height="20" viewBox="0 0 18 18" fill="none" xmlns="http://www.w3.org/2000/svg">
<mask id="mask0_1055_1326" style="mask-type:alpha" maskUnits="userSpaceOnUse" x="0" y="0" width="18" height="18">
<rect width="18" height="18" fill="#D9D9D9"/>
</mask>
<g mask="url(#mask0_1055_1326)">
<path d="M9.00156 11.2123C8.90156 11.2123 8.80781 11.1967 8.72031 11.1654C8.63281 11.1342 8.55156 11.0811 8.47656 11.0061L5.02656 7.55605C4.88906 7.41855 4.82031 7.24355 4.82031 7.03105C4.82031 6.81855 4.88906 6.64355 5.02656 6.50605C5.16406 6.36855 5.33906 6.2998 5.55156 6.2998C5.76406 6.2998 5.93906 6.36855 6.07656 6.50605L9.00156 9.43106L11.9266 6.50605C12.0641 6.36855 12.2391 6.2998 12.4516 6.2998C12.6641 6.2998 12.8391 6.36855 12.9766 6.50605C13.1141 6.64355 13.1828 6.81855 13.1828 7.03105C13.1828 7.24355 13.1141 7.41855 12.9766 7.55605L9.52656 11.0061C9.45156 11.0811 9.37031 11.1342 9.28281 11.1654C9.19531 11.1967 9.10156 11.2123 9.00156 11.2123Z" fill="#737373"/>
</g>
</svg>
