<svg width="16" height="16" viewBox="0 0 16 16" fill="none" xmlns="http://www.w3.org/2000/svg">
<path d="M13.7593 10.5156C14.1268 10.0963 14.3304 9.55842 14.3327 9.00092C14.3327 8.38208 14.0869 7.78859 13.6493 7.35101C13.2117 6.91342 12.6182 6.66759 11.9993 6.66759C11.3805 6.66759 10.787 6.91342 10.3494 7.35101C9.91185 7.78859 9.66602 8.38208 9.66602 9.00092C9.66826 9.55842 9.87187 10.0963 10.2393 10.5156C9.75932 10.8131 9.36299 11.2281 9.08772 11.7212C8.81245 12.2144 8.66732 12.7695 8.66602 13.3343C8.66602 13.5111 8.73625 13.6806 8.86128 13.8057C8.9863 13.9307 9.15587 14.0009 9.33268 14.0009C9.50949 14.0009 9.67906 13.9307 9.80409 13.8057C9.92911 13.6806 9.99935 13.5111 9.99935 13.3343C9.99935 12.8038 10.2101 12.2951 10.5851 11.92C10.9602 11.545 11.4689 11.3343 11.9993 11.3343C12.5298 11.3343 13.0385 11.545 13.4136 11.92C13.7886 12.2951 13.9993 12.8038 13.9993 13.3343C13.9993 13.5111 14.0696 13.6806 14.1946 13.8057C14.3196 13.9307 14.4892 14.0009 14.666 14.0009C14.8428 14.0009 15.0124 13.9307 15.1374 13.8057C15.2624 13.6806 15.3327 13.5111 15.3327 13.3343C15.3314 12.7695 15.1862 12.2144 14.911 11.7212C14.6357 11.2281 14.2394 10.8131 13.7593 10.5156ZM11.9993 10.0009C11.8016 10.0009 11.6082 9.94227 11.4438 9.83239C11.2793 9.72251 11.1512 9.56633 11.0755 9.38361C10.9998 9.20088 10.98 8.99981 11.0186 8.80583C11.0571 8.61185 11.1524 8.43367 11.2922 8.29382C11.4321 8.15396 11.6103 8.05872 11.8043 8.02014C11.9982 7.98155 12.1993 8.00136 12.382 8.07704C12.5648 8.15273 12.7209 8.2809 12.8308 8.44535C12.9407 8.6098 12.9993 8.80314 12.9993 9.00092C12.999 9.26603 12.8935 9.52018 12.7061 9.70764C12.5186 9.8951 12.2645 10.0006 11.9993 10.0009ZM4.52802 5.13892L5.86135 6.47226C5.98708 6.59369 6.15549 6.66089 6.33028 6.65937C6.50508 6.65785 6.67229 6.58774 6.79589 6.46413C6.9195 6.34053 6.98961 6.17332 6.99113 5.99852C6.99265 5.82372 6.92545 5.65532 6.80402 5.52959L6.60868 5.33426H9.39002L9.19468 5.52959C9.13101 5.59109 9.08022 5.66465 9.04528 5.74599C9.01034 5.82732 8.99195 5.9148 8.99118 6.00332C8.99041 6.09184 9.00728 6.17963 9.0408 6.26156C9.07432 6.34349 9.12382 6.41792 9.18642 6.48052C9.24901 6.54311 9.32345 6.59262 9.40538 6.62614C9.48731 6.65966 9.5751 6.67653 9.66362 6.67576C9.75214 6.67499 9.83962 6.6566 9.92095 6.62166C10.0023 6.58672 10.0759 6.53593 10.1373 6.47226L11.4707 5.13892C11.595 5.01356 11.6648 4.84415 11.6648 4.66759C11.6648 4.49103 11.595 4.32162 11.4707 4.19626L10.1373 2.86292C10.0116 2.74148 9.84321 2.67429 9.66842 2.67581C9.49362 2.67733 9.32641 2.74744 9.2028 2.87104C9.0792 2.99465 9.00909 3.16186 9.00757 3.33666C9.00605 3.51145 9.07324 3.67985 9.19468 3.80559L9.39002 4.00092H6.60868L6.80402 3.80559C6.92545 3.67985 6.99265 3.51145 6.99113 3.33666C6.98961 3.16186 6.9195 2.99465 6.79589 2.87104C6.67229 2.74744 6.50508 2.67733 6.33028 2.67581C6.15549 2.67429 5.98708 2.74148 5.86135 2.86292L4.52802 4.19626C4.40368 4.32162 4.33392 4.49103 4.33392 4.66759C4.33392 4.84415 4.40368 5.01356 4.52802 5.13892ZM5.75935 10.5156C6.12683 10.0963 6.33044 9.55842 6.33268 9.00092C6.33268 8.38208 6.08685 7.78859 5.64926 7.35101C5.21168 6.91342 4.61819 6.66759 3.99935 6.66759C3.38051 6.66759 2.78702 6.91342 2.34943 7.35101C1.91185 7.78859 1.66602 8.38208 1.66602 9.00092C1.66826 9.55842 1.87187 10.0963 2.23935 10.5156C1.75932 10.8131 1.36299 11.2281 1.08772 11.7212C0.812454 12.2144 0.667324 12.7695 0.666016 13.3343C0.666016 13.5111 0.736253 13.6806 0.861278 13.8057C0.986302 13.9307 1.15587 14.0009 1.33268 14.0009C1.50949 14.0009 1.67906 13.9307 1.80409 13.8057C1.92911 13.6806 1.99935 13.5111 1.99935 13.3343C1.99935 12.8038 2.21006 12.2951 2.58514 11.92C2.96021 11.545 3.46892 11.3343 3.99935 11.3343C4.52978 11.3343 5.03849 11.545 5.41356 11.92C5.78864 12.2951 5.99935 12.8038 5.99935 13.3343C5.99935 13.5111 6.06959 13.6806 6.19461 13.8057C6.31964 13.9307 6.4892 14.0009 6.66602 14.0009C6.84283 14.0009 7.0124 13.9307 7.13742 13.8057C7.26244 13.6806 7.33268 13.5111 7.33268 13.3343C7.33137 12.7695 7.18624 12.2144 6.91098 11.7212C6.63571 11.2281 6.23938 10.8131 5.75935 10.5156ZM3.99935 10.0009C3.80157 10.0009 3.60823 9.94227 3.44378 9.83239C3.27933 9.72251 3.15116 9.56633 3.07547 9.38361C2.99978 9.20088 2.97998 8.99981 3.01856 8.80583C3.05715 8.61185 3.15239 8.43367 3.29224 8.29382C3.43209 8.15396 3.61028 8.05872 3.80426 8.02014C3.99824 7.98155 4.19931 8.00136 4.38203 8.07704C4.56476 8.15273 4.72094 8.2809 4.83082 8.44535C4.9407 8.6098 4.99935 8.80314 4.99935 9.00092C4.999 9.26603 4.89353 9.52018 4.70607 9.70764C4.51861 9.8951 4.26446 10.0006 3.99935 10.0009Z" fill="#757575"/>
</svg>

