<svg width="16" height="16" viewBox="0 0 16 16" fill="none" xmlns="http://www.w3.org/2000/svg">
<mask id="mask0_1351_5027" style="mask-type:alpha" maskUnits="userSpaceOnUse" x="0" y="0" width="16" height="16">
<rect width="16" height="16" fill="#D9D9D9"/>
</mask>
<g mask="url(#mask0_1351_5027)">
<path d="M12.1546 6.40618L14.9354 3.61386C15.047 3.50232 15.1794 3.44655 15.3328 3.44655C15.4861 3.44655 15.621 3.50232 15.7373 3.61386C15.8537 3.72539 15.9107 3.85904 15.9083 4.01481C15.9058 4.17058 15.8489 4.30423 15.7373 4.41576L12.6292 7.51673C12.4936 7.6523 12.3354 7.72009 12.1546 7.72009C11.9739 7.72009 11.8157 7.6523 11.6801 7.51673L10.1657 6.00231C10.0542 5.89077 9.99721 5.75952 9.9948 5.60856C9.9924 5.45761 10.0494 5.32396 10.1657 5.20761C10.279 5.09607 10.4112 5.0403 10.5622 5.0403C10.7133 5.0403 10.8446 5.09607 10.9561 5.20761L12.1546 6.40618ZM5.74215 8.02729C5.02029 8.02729 4.40233 7.77026 3.88826 7.25621C3.3742 6.74215 3.11717 6.12419 3.11717 5.40233C3.11717 4.68045 3.3742 4.06249 3.88826 3.54844C4.40233 3.03438 5.02029 2.77734 5.74215 2.77734C6.46401 2.77734 7.08198 3.03438 7.59604 3.54844C8.1101 4.06249 8.36713 4.68045 8.36713 5.40233C8.36713 6.12419 8.1101 6.74215 7.59604 7.25621C7.08198 7.77026 6.46401 8.02729 5.74215 8.02729ZM0.117188 12.5994V12.0715C0.117188 11.7042 0.216937 11.3641 0.416438 11.0511C0.615963 10.7381 0.88255 10.4975 1.2162 10.3292C1.95755 9.96578 2.70539 9.69319 3.45971 9.51146C4.21404 9.32974 4.97485 9.23888 5.74215 9.23888C6.50945 9.23888 7.27026 9.32974 8.02459 9.51146C8.77891 9.69319 9.52675 9.96578 10.2681 10.3292C10.6017 10.4975 10.8683 10.7381 11.0678 11.0511C11.2674 11.3641 11.3671 11.7042 11.3671 12.0715V12.5994C11.3671 12.9158 11.2563 13.1847 11.0347 13.4064C10.8131 13.628 10.5441 13.7388 10.2277 13.7388H1.25657C0.940231 13.7388 0.67125 13.628 0.449625 13.4064C0.228 13.1847 0.117188 12.9158 0.117188 12.5994ZM1.24215 12.6138H10.2421V12.0715C10.2421 11.9196 10.1982 11.779 10.1102 11.6497C10.0222 11.5203 9.90273 11.4148 9.75176 11.3331C9.10561 11.0148 8.44675 10.7737 7.77518 10.6097C7.1036 10.4458 6.42592 10.3638 5.74215 10.3638C5.05837 10.3638 4.3807 10.4458 3.70913 10.6097C3.03755 10.7737 2.37869 11.0148 1.73254 11.3331C1.58158 11.4148 1.46211 11.5203 1.37413 11.6497C1.28614 11.779 1.24215 11.9196 1.24215 12.0715V12.6138ZM5.74215 6.90233C6.15465 6.90233 6.50777 6.75545 6.80153 6.4617C7.09527 6.16795 7.24215 5.81483 7.24215 5.40233C7.24215 4.98983 7.09527 4.6367 6.80153 4.34295C6.50777 4.0492 6.15465 3.90233 5.74215 3.90233C5.32965 3.90233 4.97652 4.0492 4.68278 4.34295C4.38903 4.6367 4.24215 4.98983 4.24215 5.40233C4.24215 5.81483 4.38903 6.16795 4.68278 6.4617C4.97652 6.75545 5.32965 6.90233 5.74215 6.90233Z" fill="#757575"/>
</g>
</svg>

