<svg width="18" height="18" viewBox="0 0 18 18" fill="none" xmlns="http://www.w3.org/2000/svg">
<mask id="mask0_1348_5252" style="mask-type:alpha" maskUnits="userSpaceOnUse" x="0" y="0" width="18" height="18">
<rect width="18" height="18" fill="#D9D9D9"/>
</mask>
<g mask="url(#mask0_1348_5252)">
<path d="M3.98078 15.375C3.60193 15.375 3.28125 15.2437 3.01875 14.9812C2.75625 14.7187 2.625 14.398 2.625 14.0192V3.98078C2.625 3.60193 2.75625 3.28125 3.01875 3.01875C3.28125 2.75625 3.60193 2.625 3.98078 2.625H14.0192C14.398 2.625 14.7187 2.75625 14.9812 3.01875C15.2437 3.28125 15.375 3.60193 15.375 3.98078V14.0192C15.375 14.398 15.2437 14.7187 14.9812 14.9812C14.7187 15.2437 14.398 15.375 14.0192 15.375H3.98078ZM3.98078 14.25H14.0192C14.0769 14.25 14.1298 14.2259 14.1779 14.1779C14.2259 14.1298 14.25 14.0769 14.25 14.0192V3.98078C14.25 3.92308 14.2259 3.87018 14.1779 3.82209C14.1298 3.77402 14.0769 3.74998 14.0192 3.74998H3.98078C3.92308 3.74998 3.87018 3.77402 3.82209 3.82209C3.77402 3.87018 3.74998 3.92308 3.74998 3.98078V14.0192C3.74998 14.0769 3.77402 14.1298 3.82209 14.1779C3.87018 14.2259 3.92308 14.25 3.98078 14.25ZM5.99998 12.5625H9.74998C9.90959 12.5625 10.0432 12.5086 10.1509 12.4009C10.2586 12.2932 10.3125 12.1596 10.3125 12C10.3125 11.8404 10.2586 11.7067 10.1509 11.599C10.0432 11.4913 9.90959 11.4375 9.74998 11.4375H5.99998C5.84037 11.4375 5.70672 11.4913 5.59903 11.599C5.49134 11.7067 5.4375 11.8404 5.4375 12C5.4375 12.1596 5.49134 12.2932 5.59903 12.4009C5.70672 12.5086 5.84037 12.5625 5.99998 12.5625ZM5.99998 9.56246H12C12.1596 9.56246 12.2932 9.50862 12.4009 9.40093C12.5086 9.29324 12.5625 9.15959 12.5625 8.99998C12.5625 8.84037 12.5086 8.70672 12.4009 8.59903C12.2932 8.49134 12.1596 8.4375 12 8.4375H5.99998C5.84037 8.4375 5.70672 8.49134 5.59903 8.59903C5.49134 8.70672 5.4375 8.84037 5.4375 8.99998C5.4375 9.15959 5.49134 9.29324 5.59903 9.40093C5.70672 9.50862 5.84037 9.56246 5.99998 9.56246ZM5.99998 6.56246H12C12.1596 6.56246 12.2932 6.50862 12.4009 6.40093C12.5086 6.29324 12.5625 6.15959 12.5625 5.99998C12.5625 5.84037 12.5086 5.70672 12.4009 5.59903C12.2932 5.49134 12.1596 5.4375 12 5.4375H5.99998C5.84037 5.4375 5.70672 5.49134 5.59903 5.59903C5.49134 5.70672 5.4375 5.84037 5.4375 5.99998C5.4375 6.15959 5.49134 6.29324 5.59903 6.40093C5.70672 6.50862 5.84037 6.56246 5.99998 6.56246Z" fill="#757575"/>
</g>
</svg>

