<svg width="16" height="17" viewBox="0 0 16 17" fill="none" xmlns="http://www.w3.org/2000/svg">
<mask id="mask0_1351_5055" style="mask-type:alpha" maskUnits="userSpaceOnUse" x="0" y="0" width="16" height="17">
<rect y="0.5" width="16" height="16" fill="#D9D9D9"/>
</mask>
<g mask="url(#mask0_1351_5055)">
<path d="M10.8828 8.38479L8.12806 5.63001C8.05786 5.55982 8.00833 5.48546 7.97948 5.40694C7.95064 5.32841 7.93623 5.24428 7.93623 5.15454C7.93623 5.06479 7.95064 4.98098 7.97948 4.90309C8.00833 4.82521 8.05786 4.75118 8.12806 4.68098L10.8828 1.92621C10.953 1.85602 11.0274 1.8065 11.1059 1.77765C11.1844 1.7488 11.2686 1.73438 11.3583 1.73438C11.448 1.73438 11.5319 1.7488 11.6097 1.77765C11.6876 1.8065 11.7617 1.85602 11.8319 1.92621L14.5866 4.68098C14.6568 4.75118 14.7063 4.82554 14.7352 4.90406C14.764 4.98259 14.7785 5.06672 14.7785 5.15646C14.7785 5.24621 14.764 5.33002 14.7352 5.40789C14.7063 5.48578 14.6568 5.55982 14.5866 5.63001L11.8319 8.38479C11.7617 8.45498 11.6873 8.5045 11.6088 8.53335C11.5303 8.56219 11.4461 8.57661 11.3564 8.57661C11.2666 8.57661 11.1828 8.56219 11.1049 8.53335C11.0271 8.5045 10.953 8.45498 10.8828 8.38479ZM1.85547 6.92664V3.03246C1.85547 2.84038 1.92043 2.67938 2.05036 2.54946C2.18028 2.41953 2.34128 2.35457 2.53336 2.35457H6.42754C6.61961 2.35457 6.7806 2.41953 6.91053 2.54946C7.04045 2.67938 7.10541 2.84038 7.10541 3.03246V6.92664C7.10541 7.11871 7.04045 7.2797 6.91053 7.40963C6.7806 7.53955 6.61961 7.60451 6.42754 7.60451H2.53336C2.34128 7.60451 2.18028 7.53955 2.05036 7.40963C1.92043 7.2797 1.85547 7.11871 1.85547 6.92664ZM8.8939 13.9651V10.0709C8.8939 9.87881 8.95886 9.71781 9.08879 9.58789C9.21871 9.45796 9.37971 9.393 9.57177 9.393H13.466C13.658 9.393 13.819 9.45796 13.949 9.58789C14.0789 9.71781 14.1438 9.87881 14.1438 10.0709V13.9651C14.1438 14.1571 14.0789 14.3181 13.949 14.4481C13.819 14.578 13.658 14.6429 13.466 14.6429H9.57177C9.37971 14.6429 9.21871 14.578 9.08879 14.4481C8.95886 14.3181 8.8939 14.1571 8.8939 13.9651ZM1.85547 13.9651V10.0709C1.85547 9.87881 1.92043 9.71781 2.05036 9.58789C2.18028 9.45796 2.34128 9.393 2.53336 9.393H6.42754C6.61961 9.393 6.7806 9.45796 6.91053 9.58789C7.04045 9.71781 7.10541 9.87881 7.10541 10.0709V13.9651C7.10541 14.1571 7.04045 14.3181 6.91053 14.4481C6.7806 14.578 6.61961 14.6429 6.42754 14.6429H2.53336C2.34128 14.6429 2.18028 14.578 2.05036 14.4481C1.92043 14.3181 1.85547 14.1571 1.85547 13.9651ZM2.98045 6.47955H5.98045V3.47955H2.98045V6.47955ZM11.3761 7.293L13.4948 5.17425L11.3761 3.0555L9.25733 5.17425L11.3761 7.293ZM10.0189 13.518H13.0189V10.518H10.0189V13.518ZM2.98045 13.518H5.98045V10.518H2.98045V13.518Z" fill="#757575"/>
</g>
</svg>

