<svg width="18" height="18" viewBox="0 0 18 18" fill="none" xmlns="http://www.w3.org/2000/svg">
<path d="M9.00078 5.85078C9.00078 5.73143 8.95337 5.61698 8.86898 5.53258C8.78459 5.44819 8.67013 5.40078 8.55079 5.40078C8.43144 5.40078 8.31698 5.44819 8.23259 5.53258C8.1482 5.61698 8.10078 5.73143 8.10078 5.85078V9.45078C8.10078 9.57013 8.1482 9.68459 8.23259 9.76898C8.31698 9.85337 8.43144 9.90078 8.55079 9.90078H11.2508C11.3701 9.90078 11.4846 9.85337 11.569 9.76898C11.6534 9.68459 11.7008 9.57013 11.7008 9.45078C11.7008 9.33143 11.6534 9.21697 11.569 9.13258C11.4846 9.04819 11.3701 9.00078 11.2508 9.00078H9.00078V5.85078ZM3.01848 7.02078C2.64163 6.75534 2.33424 6.40305 2.12229 5.99372C1.91033 5.58439 1.80006 5.13003 1.80078 4.66908C1.80078 3.08868 3.07338 1.80078 4.65018 1.80078C5.61948 1.80078 6.47359 2.28858 6.98748 3.02928C7.63628 2.81114 8.3163 2.70018 9.00078 2.70078C9.68301 2.7 10.3608 2.81003 11.0078 3.02658C11.2696 2.64822 11.6193 2.33902 12.0268 2.12551C12.4344 1.91201 12.8877 1.80058 13.3478 1.80078C13.7228 1.80078 14.0942 1.87472 14.4406 2.01838C14.7871 2.16204 15.1018 2.37259 15.3668 2.638C15.6317 2.9034 15.8418 3.21844 15.9849 3.5651C16.128 3.91177 16.2014 4.28324 16.2008 4.65828C16.2008 5.63028 15.7166 6.48798 14.9777 7.00458C15.1874 7.63188 15.3008 8.30328 15.3008 9.00078C15.3032 10.5168 14.7564 11.9823 13.7618 13.1264L15.1694 14.5322C15.2538 14.6167 15.3011 14.7312 15.301 14.8506C15.301 14.9701 15.2534 15.0846 15.1689 15.1689C15.0844 15.2533 14.9699 15.3007 14.8505 15.3006C14.7311 15.3005 14.6166 15.253 14.5322 15.1685L13.1264 13.7627C11.9822 14.757 10.5167 15.3034 9.00078 15.3008C7.4848 15.3031 6.01924 14.7564 4.87519 13.7618L3.46938 15.1694C3.4276 15.2112 3.37799 15.2444 3.32338 15.2671C3.26877 15.2898 3.21023 15.3014 3.1511 15.3015C3.09198 15.3015 3.03342 15.2899 2.97878 15.2673C2.92413 15.2447 2.87447 15.2116 2.83263 15.1698C2.7908 15.1281 2.7576 15.0784 2.73493 15.0238C2.71226 14.9692 2.70058 14.9107 2.70053 14.8516C2.70049 14.7924 2.7121 14.7339 2.73469 14.6792C2.75727 14.6246 2.7904 14.5749 2.83218 14.5331L4.23889 13.1264C3.24455 11.9822 2.69817 10.5167 2.70078 9.00078C2.70078 8.30868 2.81238 7.64358 3.01848 7.02078ZM2.70078 4.66908C2.70078 5.26488 2.96268 5.79858 3.37578 6.15948C3.97925 4.96878 4.94385 3.99945 6.13158 3.39018C5.94989 3.17418 5.72313 3.00054 5.46722 2.88145C5.21131 2.76235 4.93245 2.70069 4.65018 2.70078C4.39293 2.70196 4.13842 2.75381 3.90121 2.85338C3.664 2.95295 3.44873 3.09827 3.2677 3.28106C3.08667 3.46385 2.94342 3.68051 2.84615 3.91867C2.74888 4.15683 2.69948 4.41182 2.70078 4.66908ZM14.6186 6.14508C15.0362 5.78598 15.3008 5.25408 15.3008 4.65828C15.3014 4.40143 15.2513 4.14699 15.1534 3.90952C15.0555 3.67205 14.9118 3.45622 14.7304 3.27439C14.5489 3.09256 14.3334 2.9483 14.0962 2.84987C13.859 2.75145 13.6046 2.70078 13.3478 2.70078C12.7538 2.70078 12.2219 2.96628 11.8628 3.38748C13.0482 3.99424 14.012 4.95957 14.6168 6.14598M3.60079 9.00078C3.60079 10.433 4.16971 11.8065 5.18241 12.8192C6.19511 13.8319 7.56862 14.4008 9.00078 14.4008C10.433 14.4008 11.8065 13.8319 12.8192 12.8192C13.8319 11.8065 14.4008 10.433 14.4008 9.00078C14.4008 7.56861 13.8319 6.1951 12.8192 5.1824C11.8065 4.16971 10.433 3.60078 9.00078 3.60078C7.56862 3.60078 6.19511 4.16971 5.18241 5.1824C4.16971 6.1951 3.60079 7.56861 3.60079 9.00078Z" fill="#E37400"/>
</svg>

