<svg width="22" height="22" viewBox="0 0 17 16" fill="none" xmlns="http://www.w3.org/2000/svg">
<mask id="mask0_902_6243" style="mask-type:alpha" maskUnits="userSpaceOnUse" x="0" y="0" width="17" height="16">
<rect x="0.5" width="16" height="16" fill="#D9D9D9"/>
</mask>
<g mask="url(#mask0_902_6243)">
<g filter="url(#filter0_f_902_6243)">
<circle cx="8.9451" cy="8.44412" r="3.11111" fill="#E37400"/>
</g>
<path d="M3.83073 12.6673C3.64184 12.6673 3.48351 12.6034 3.35573 12.4756C3.22795 12.3479 3.16406 12.1895 3.16406 12.0007C3.16406 11.8118 3.22795 11.6534 3.35573 11.5257C3.48351 11.3979 3.64184 11.334 3.83073 11.334H4.4974V6.66732C4.4974 5.7451 4.77517 4.92565 5.33073 4.20898C5.88629 3.49232 6.60851 3.02287 7.4974 2.80065V2.33398C7.4974 2.05621 7.59462 1.8201 7.78906 1.62565C7.98351 1.43121 8.21962 1.33398 8.4974 1.33398C8.77517 1.33398 9.01129 1.43121 9.20573 1.62565C9.40017 1.8201 9.4974 2.05621 9.4974 2.33398V2.80065C10.3863 3.02287 11.1085 3.49232 11.6641 4.20898C12.2196 4.92565 12.4974 5.7451 12.4974 6.66732V11.334H13.1641C13.353 11.334 13.5113 11.3979 13.6391 11.5257C13.7668 11.6534 13.8307 11.8118 13.8307 12.0007C13.8307 12.1895 13.7668 12.3479 13.6391 12.4756C13.5113 12.6034 13.353 12.6673 13.1641 12.6673H3.83073ZM8.4974 14.6673C8.13073 14.6673 7.81684 14.5368 7.55573 14.2757C7.29462 14.0145 7.16406 13.7007 7.16406 13.334H9.83073C9.83073 13.7007 9.70017 14.0145 9.43906 14.2757C9.17795 14.5368 8.86406 14.6673 8.4974 14.6673ZM5.83073 11.334H11.1641V6.66732C11.1641 5.93398 10.903 5.30621 10.3807 4.78398C9.85851 4.26176 9.23073 4.00065 8.4974 4.00065C7.76406 4.00065 7.13629 4.26176 6.61406 4.78398C6.09184 5.30621 5.83073 5.93398 5.83073 6.66732V11.334ZM7.83073 8.66732V9.33398C7.83073 9.52287 7.89462 9.68121 8.0224 9.80898C8.15017 9.93676 8.30851 10.0007 8.4974 10.0007C8.68629 10.0007 8.84462 9.93676 8.9724 9.80898C9.10017 9.68121 9.16406 9.52287 9.16406 9.33398V8.66732H9.83073C10.0196 8.66732 10.178 8.60343 10.3057 8.47565C10.4335 8.34787 10.4974 8.18954 10.4974 8.00065C10.4974 7.81176 10.4335 7.65343 10.3057 7.52565C10.178 7.39787 10.0196 7.33398 9.83073 7.33398H9.16406V6.66732C9.16406 6.47843 9.10017 6.3201 8.9724 6.19232C8.84462 6.06454 8.68629 6.00065 8.4974 6.00065C8.30851 6.00065 8.15017 6.06454 8.0224 6.19232C7.89462 6.3201 7.83073 6.47843 7.83073 6.66732V7.33398H7.16406C6.97517 7.33398 6.81684 7.39787 6.68906 7.52565C6.56129 7.65343 6.4974 7.81176 6.4974 8.00065C6.4974 8.18954 6.56129 8.34787 6.68906 8.47565C6.81684 8.60343 6.97517 8.66732 7.16406 8.66732H7.83073Z" fill="#737373"/>
</g>
<defs>
<filter id="filter0_f_902_6243" x="-0.166016" y="-0.666992" width="18.2227" height="18.2227" filterUnits="userSpaceOnUse" color-interpolation-filters="sRGB">
<feFlood flood-opacity="0" result="BackgroundImageFix"/>
<feBlend mode="normal" in="SourceGraphic" in2="BackgroundImageFix" result="shape"/>
<feGaussianBlur stdDeviation="3" result="effect1_foregroundBlur_902_6243"/>
</filter>
</defs>
</svg>

