<svg width="16" height="16" viewBox="0 0 16 16" fill="none" xmlns="http://www.w3.org/2000/svg">
<mask id="mask0_902_6793" style="mask-type:alpha" maskUnits="userSpaceOnUse" x="0" y="0" width="16" height="16">
<rect width="16" height="16" fill="#D9D9D9"/>
</mask>
<g mask="url(#mask0_902_6793)">
<g filter="url(#filter0_f_902_6793)">
<circle cx="8.00087" cy="8.00087" r="3.55556" fill="#E37400"/>
</g>
<path d="M3.33098 12.6673C3.14209 12.6673 2.98376 12.6034 2.85598 12.4757C2.7282 12.3479 2.66431 12.1895 2.66431 12.0007C2.66431 11.8118 2.7282 11.6534 2.85598 11.5257C2.98376 11.3979 3.14209 11.334 3.33098 11.334H3.99765V6.66732C3.99765 5.7451 4.27542 4.92565 4.83098 4.20898C5.38654 3.49232 6.10876 3.02287 6.99765 2.80065V2.33398C6.99765 2.05621 7.09487 1.8201 7.28931 1.62565C7.48376 1.43121 7.71987 1.33398 7.99765 1.33398C8.27542 1.33398 8.51154 1.43121 8.70598 1.62565C8.90042 1.8201 8.99765 2.05621 8.99765 2.33398V2.80065C9.88654 3.02287 10.6088 3.49232 11.1643 4.20898C11.7199 4.92565 11.9976 5.7451 11.9976 6.66732V11.334H12.6643C12.8532 11.334 13.0115 11.3979 13.1393 11.5257C13.2671 11.6534 13.331 11.8118 13.331 12.0007C13.331 12.1895 13.2671 12.3479 13.1393 12.4757C13.0115 12.6034 12.8532 12.6673 12.6643 12.6673H3.33098ZM7.99765 14.6673C7.63098 14.6673 7.31709 14.5368 7.05598 14.2757C6.79487 14.0145 6.66431 13.7007 6.66431 13.334H9.33098C9.33098 13.7007 9.20042 14.0145 8.93931 14.2757C8.6782 14.5368 8.36431 14.6673 7.99765 14.6673ZM5.33098 11.334H10.6643V6.66732C10.6643 5.93398 10.4032 5.30621 9.88098 4.78398C9.35876 4.26176 8.73098 4.00065 7.99765 4.00065C7.26431 4.00065 6.63654 4.26176 6.11431 4.78398C5.59209 5.30621 5.33098 5.93398 5.33098 6.66732V11.334ZM1.99765 6.66732C1.80876 6.66732 1.65042 6.5951 1.52265 6.45065C1.39487 6.30621 1.34209 6.13954 1.36431 5.95065C1.4532 5.11732 1.68654 4.34232 2.06431 3.62565C2.44209 2.90898 2.92542 2.28398 3.51431 1.75065C3.65876 1.62843 3.82265 1.57287 4.00598 1.58398C4.18931 1.5951 4.33654 1.67843 4.44765 1.83398C4.55876 1.98954 4.6032 2.15621 4.58098 2.33398C4.55876 2.51176 4.47542 2.66732 4.33098 2.80065C3.89765 3.21176 3.54209 3.68954 3.26431 4.23398C2.98654 4.77843 2.8032 5.36732 2.71431 6.00065C2.69209 6.18954 2.61431 6.34787 2.48098 6.47565C2.34765 6.60343 2.18654 6.66732 1.99765 6.66732ZM13.9976 6.66732C13.8088 6.66732 13.6476 6.60343 13.5143 6.47565C13.381 6.34787 13.3032 6.18954 13.281 6.00065C13.1921 5.36732 13.0088 4.77843 12.731 4.23398C12.4532 3.68954 12.0976 3.21176 11.6643 2.80065C11.5199 2.66732 11.4365 2.51176 11.4143 2.33398C11.3921 2.15621 11.4365 1.98954 11.5476 1.83398C11.6588 1.67843 11.806 1.5951 11.9893 1.58398C12.1726 1.57287 12.3365 1.62843 12.481 1.75065C13.0699 2.28398 13.5532 2.90898 13.931 3.62565C14.3088 4.34232 14.5421 5.11732 14.631 5.95065C14.6532 6.13954 14.6004 6.30621 14.4726 6.45065C14.3449 6.5951 14.1865 6.66732 13.9976 6.66732Z" fill="#666666"/>
</g>
<defs>
<filter id="filter0_f_902_6793" x="-3.55469" y="-3.55469" width="23.1113" height="23.1113" filterUnits="userSpaceOnUse" color-interpolation-filters="sRGB">
<feFlood flood-opacity="0" result="BackgroundImageFix"/>
<feBlend mode="normal" in="SourceGraphic" in2="BackgroundImageFix" result="shape"/>
<feGaussianBlur stdDeviation="4" result="effect1_foregroundBlur_902_6793"/>
</filter>
</defs>
</svg>
