<svg width="16" height="16" viewBox="0 0 16 16" fill="none" xmlns="http://www.w3.org/2000/svg">
<mask id="mask0_902_5998" style="mask-type:alpha" maskUnits="userSpaceOnUse" x="0" y="0" width="16" height="16">
<rect width="16" height="16" fill="#D9D9D9"/>
</mask>
<g mask="url(#mask0_902_5998)">
<g filter="url(#filter0_f_902_5998)">
<circle cx="7.99913" cy="8.00011" r="4.44444" fill="#E37400"/>
</g>
<path d="M8.38398 14.2663C8.11732 14.533 7.80065 14.6663 7.43398 14.6663C7.06732 14.6663 6.75065 14.533 6.48398 14.2663L1.71732 9.49967C1.46176 9.24412 1.33398 8.93023 1.33398 8.55801C1.33398 8.18579 1.46176 7.8719 1.71732 7.61634L7.58398 1.73301C7.70621 1.61079 7.85065 1.51356 8.01732 1.44134C8.18398 1.36912 8.36176 1.33301 8.55065 1.33301H13.3173C13.684 1.33301 13.9979 1.46356 14.259 1.72467C14.5201 1.98579 14.6507 2.29967 14.6507 2.66634V7.43301C14.6507 7.6219 14.6145 7.79967 14.5423 7.96634C14.4701 8.13301 14.3729 8.27745 14.2507 8.39967L8.38398 14.2663ZM11.6507 5.33301C11.9284 5.33301 12.1645 5.23579 12.359 5.04134C12.5534 4.8469 12.6507 4.61079 12.6507 4.33301C12.6507 4.05523 12.5534 3.81912 12.359 3.62467C12.1645 3.43023 11.9284 3.33301 11.6507 3.33301C11.3729 3.33301 11.1368 3.43023 10.9423 3.62467C10.7479 3.81912 10.6507 4.05523 10.6507 4.33301C10.6507 4.61079 10.7479 4.8469 10.9423 5.04134C11.1368 5.23579 11.3729 5.33301 11.6507 5.33301ZM7.43398 13.333L13.3173 7.43301V2.66634H8.55065L2.66732 8.56634L7.43398 13.333Z" fill="#737373"/>
</g>
<defs>
<filter id="filter0_f_902_5998" x="-5.44531" y="-5.44434" width="26.8887" height="26.8887" filterUnits="userSpaceOnUse" color-interpolation-filters="sRGB">
<feFlood flood-opacity="0" result="BackgroundImageFix"/>
<feBlend mode="normal" in="SourceGraphic" in2="BackgroundImageFix" result="shape"/>
<feGaussianBlur stdDeviation="4.5" result="effect1_foregroundBlur_902_5998"/>
</filter>
</defs>
</svg>
