<svg width="20" height="20" viewBox="0 0 20 20" fill="none" xmlns="http://www.w3.org/2000/svg">
<path d="M17.841 9.50866L10.4827 2.15033C10.1743 1.84199 9.74935 1.66699 9.30768 1.66699H3.33268C2.41602 1.66699 1.66602 2.41699 1.66602 3.33366V9.30866C1.66602 9.75033 1.84102 10.1753 2.15768 10.4837L9.51602 17.842C10.166 18.492 11.2243 18.492 11.8744 17.842L17.8494 11.867C18.4994 11.217 18.4994 10.167 17.841 9.50866ZM10.691 16.667L3.33268 9.30866V3.33366H9.30768L16.666 10.692L10.691 16.667Z" fill="black" fill-opacity="0.54"/>
<path d="M5.41602 6.66699C6.10637 6.66699 6.66602 6.10735 6.66602 5.41699C6.66602 4.72664 6.10637 4.16699 5.41602 4.16699C4.72566 4.16699 4.16602 4.72664 4.16602 5.41699C4.16602 6.10735 4.72566 6.66699 5.41602 6.66699Z" fill="black" fill-opacity="0.54"/>
</svg>
