<svg width="18" height="18" viewBox="0 0 18 18" fill="none" xmlns="http://www.w3.org/2000/svg">
<path d="M4.6875 2.25C4.04103 2.25 3.42105 2.50681 2.96393 2.96393C2.50681 3.42105 2.25 4.04103 2.25 4.6875V13.3125C2.25 13.959 2.50681 14.579 2.96393 15.0361C3.42105 15.4932 4.04103 15.75 4.6875 15.75H9.0165C8.79171 15.3994 8.61299 15.0213 8.48475 14.625H4.6875C4.3394 14.625 4.00556 14.4867 3.75942 14.2406C3.51328 13.9944 3.375 13.6606 3.375 13.3125V4.6875C3.375 3.963 3.963 3.375 4.6875 3.375H13.3125C14.037 3.375 14.625 3.963 14.625 4.6875V8.48475C15.0213 8.61299 15.3994 8.79171 15.75 9.0165V4.6875C15.75 4.04103 15.4932 3.42105 15.0361 2.96393C14.579 2.50681 13.959 2.25 13.3125 2.25H4.6875ZM9.375 6.9375C9.375 6.78832 9.43426 6.64524 9.53975 6.53975C9.64524 6.43426 9.78832 6.375 9.9375 6.375H12.5625C12.7117 6.375 12.8548 6.43426 12.9602 6.53975C13.0657 6.64524 13.125 6.78832 13.125 6.9375C13.125 7.08668 13.0657 7.22976 12.9602 7.33525C12.8548 7.44074 12.7117 7.5 12.5625 7.5H9.9375C9.78832 7.5 9.64524 7.44074 9.53975 7.33525C9.43426 7.22976 9.375 7.08668 9.375 6.9375ZM8.085 6.585C8.14026 6.5335 8.18459 6.4714 8.21534 6.4024C8.24608 6.3334 8.26261 6.25892 8.26394 6.18339C8.26528 6.10786 8.25138 6.03284 8.22309 5.9628C8.1948 5.89276 8.15269 5.82914 8.09928 5.77572C8.04586 5.72231 7.98224 5.6802 7.9122 5.65191C7.84216 5.62362 7.76714 5.60972 7.69161 5.61106C7.61608 5.61239 7.5416 5.62892 7.4726 5.65966C7.4036 5.69041 7.3415 5.73473 7.29 5.79L6.1875 6.8925L5.835 6.54C5.72837 6.44064 5.58733 6.38655 5.44161 6.38912C5.29588 6.39169 5.15684 6.45072 5.05378 6.55378C4.95072 6.65684 4.89169 6.79588 4.88912 6.94161C4.88655 7.08733 4.94064 7.22837 5.04 7.335L5.79 8.085C5.89547 8.19034 6.03844 8.24951 6.1875 8.24951C6.33656 8.24951 6.47953 8.19034 6.585 8.085L8.085 6.585ZM8.085 9.915C8.19034 10.0205 8.24951 10.1634 8.24951 10.3125C8.24951 10.4616 8.19034 10.6045 8.085 10.71L6.585 12.21C6.47953 12.3153 6.33656 12.3745 6.1875 12.3745C6.03844 12.3745 5.89547 12.3153 5.79 12.21L5.04 11.46C4.98473 11.4085 4.94041 11.3464 4.90966 11.2774C4.87892 11.2084 4.86239 11.1339 4.86106 11.0584C4.85972 10.9829 4.87362 10.9078 4.90191 10.8378C4.9302 10.7678 4.97231 10.7041 5.02572 10.6507C5.07914 10.5973 5.14276 10.5552 5.2128 10.5269C5.28284 10.4986 5.35786 10.4847 5.43339 10.4861C5.50892 10.4874 5.5834 10.5039 5.6524 10.5347C5.7214 10.5654 5.7835 10.6097 5.835 10.665L6.1875 11.0175L7.29 9.915C7.39547 9.80966 7.53844 9.75049 7.6875 9.75049C7.83656 9.75049 7.97953 9.80966 8.085 9.915Z" fill="#01579B"/>
<path d="M12.4024 13.9037L11.4243 12.9255C11.366 12.8672 11.2927 12.8374 11.2044 12.836C11.1162 12.8347 11.0416 12.8645 10.9806 12.9255C10.9196 12.9865 10.8891 13.0605 10.8891 13.1474C10.8891 13.2343 10.9196 13.3082 10.9806 13.3692L12.136 14.5247C12.2121 14.6008 12.3009 14.6389 12.4024 14.6389C12.5039 14.6389 12.5927 14.6008 12.6688 14.5247L15.0113 12.1822C15.0696 12.1239 15.0995 12.0506 15.1008 11.9623C15.1022 11.8741 15.0723 11.7995 15.0113 11.7385C14.9503 11.6775 14.8764 11.647 14.7895 11.647C14.7026 11.647 14.6286 11.6775 14.5676 11.7385L12.4024 13.9037ZM13.0007 17C12.4475 17 11.9275 16.895 11.4407 16.6851C10.9539 16.4751 10.5304 16.1901 10.1703 15.8302C9.81022 15.4703 9.52514 15.047 9.31509 14.5604C9.10503 14.0738 9 13.5539 9 13.0007C9 12.4475 9.10498 11.9275 9.31495 11.4407C9.52491 10.9539 9.80986 10.5304 10.1698 10.1703C10.5297 9.81022 10.953 9.52514 11.4396 9.31509C11.9262 9.10503 12.4461 9 12.9993 9C13.5525 9 14.0725 9.10498 14.5593 9.31495C15.0461 9.52491 15.4696 9.80986 15.8297 10.1698C16.1898 10.5297 16.4749 10.953 16.6849 11.4396C16.895 11.9262 17 12.4461 17 12.9993C17 13.5525 16.895 14.0725 16.6851 14.5593C16.4751 15.0461 16.1901 15.4696 15.8302 15.8297C15.4703 16.1898 15.047 16.4749 14.5604 16.6849C14.0738 16.895 13.5539 17 13.0007 17Z" fill="#01579B"/>
</svg>
