<svg width="6" height="10" viewBox="0 0 6 10" fill="none" xmlns="http://www.w3.org/2000/svg">
<path d="M1.71182 5.00045L5.1062 8.39462C5.22148 8.51003 5.2805 8.6551 5.28328 8.82982C5.28592 9.00441 5.22689 9.15212 5.1062 9.27295C4.98536 9.39364 4.83898 9.45399 4.66703 9.45399C4.49509 9.45399 4.3487 9.39364 4.22786 9.27295L0.482656 5.52774C0.404739 5.44969 0.34974 5.36739 0.317656 5.28087C0.285573 5.19434 0.269531 5.10087 0.269531 5.00045C0.269531 4.90003 0.285573 4.80656 0.317656 4.72003C0.34974 4.63351 0.404739 4.55121 0.482656 4.47316L4.22786 0.727949C4.34328 0.612672 4.48835 0.553644 4.66307 0.550866C4.83766 0.548227 4.98536 0.607255 5.1062 0.727949C5.22689 0.848783 5.28724 0.995172 5.28724 1.16712C5.28724 1.33906 5.22689 1.48545 5.1062 1.60628L1.71182 5.00045Z" fill="white"/>
</svg>
