            <svg width="19" height="19" viewBox="0 0 19 19" fill="none" xmlns="http://www.w3.org/2000/svg">
<mask id="mask0_2823_52552" style="mask-type:alpha" maskUnits="userSpaceOnUse" x="0" y="0" width="19" height="19">
<rect x="0.5" y="0.5" width="18" height="18" fill="#D9D9D9"/>
</mask>
<g mask="url(#mask0_2823_52552)">
<path d="M4.25 7.10631H14.75V5.23131C14.75 5.17356 14.7259 5.12069 14.6778 5.07269C14.6298 5.02456 14.5769 5.0005 14.5192 5.0005H4.48081C4.42306 5.0005 4.37019 5.02456 4.32219 5.07269C4.27406 5.12069 4.25 5.17356 4.25 5.23131V7.10631ZM4.48081 16.6255C4.10194 16.6255 3.78125 16.4943 3.51875 16.2318C3.25625 15.9692 3.125 15.6486 3.125 15.2697V5.23131C3.125 4.85244 3.25625 4.53175 3.51875 4.26925C3.78125 4.00675 4.10194 3.8755 4.48081 3.8755H5.51919V2.86581C5.51919 2.70144 5.57425 2.56419 5.68438 2.45406C5.7945 2.34406 5.93175 2.28906 6.09613 2.28906C6.26063 2.28906 6.39788 2.34406 6.50788 2.45406C6.618 2.56419 6.67306 2.70144 6.67306 2.86581V3.8755H12.3558V2.85156C12.3558 2.69194 12.4096 2.55825 12.5173 2.4505C12.625 2.34287 12.7587 2.28906 12.9183 2.28906C13.0779 2.28906 13.2116 2.34287 13.3192 2.4505C13.4269 2.55825 13.4808 2.69194 13.4808 2.85156V3.8755H14.5192C14.8981 3.8755 15.2188 4.00675 15.4813 4.26925C15.7438 4.53175 15.875 4.85244 15.875 5.23131V8.76644C15.875 8.92606 15.8211 9.05969 15.7134 9.16731C15.6058 9.27506 15.4721 9.32894 15.3125 9.32894C15.1529 9.32894 15.0193 9.27506 14.9116 9.16731C14.8039 9.05969 14.75 8.92606 14.75 8.76644V8.23131H4.25V15.2697C4.25 15.3274 4.27406 15.3803 4.32219 15.4283C4.37019 15.4764 4.42306 15.5005 4.48081 15.5005H9.06875C9.22838 15.5005 9.36206 15.5544 9.46981 15.6621C9.57744 15.7697 9.63125 15.9034 9.63125 16.063C9.63125 16.2226 9.57744 16.3562 9.46981 16.4639C9.36206 16.5716 9.22838 16.6255 9.06875 16.6255H4.48081ZM14.1442 17.3755C13.2077 17.3755 12.4111 17.0471 11.7543 16.3904C11.0976 15.7336 10.7692 14.937 10.7692 14.0005C10.7692 13.064 11.0976 12.2674 11.7543 11.6106C12.4111 10.9539 13.2077 10.6255 14.1442 10.6255C15.0808 10.6255 15.8774 10.9539 16.5341 11.6106C17.1908 12.2674 17.5192 13.064 17.5192 14.0005C17.5192 14.937 17.1908 15.7336 16.5341 16.3904C15.8774 17.0471 15.0808 17.3755 14.1442 17.3755ZM14.4761 13.8649V12.1255C14.4761 12.0351 14.4433 11.9573 14.3778 11.8919C14.3124 11.8265 14.2346 11.7938 14.1442 11.7938C14.0538 11.7938 13.9759 11.8265 13.9106 11.8919C13.8452 11.9573 13.8125 12.0351 13.8125 12.1255V13.8533C13.8125 13.9437 13.8289 14.0297 13.8616 14.1115C13.8943 14.1932 13.9457 14.2693 14.0159 14.3395L15.1597 15.4833C15.2251 15.5486 15.3018 15.5825 15.3898 15.5849C15.4776 15.5873 15.5567 15.5534 15.6269 15.4833C15.6972 15.413 15.7323 15.3351 15.7323 15.2496C15.7323 15.164 15.6972 15.0861 15.6269 15.0158L14.4761 13.8649Z" fill="black" fill-opacity="0.56"/>
</g>
</svg>