<svg width="40" height="40" viewBox="0 0 40 40" fill="none" xmlns="http://www.w3.org/2000/svg">
<circle cx="20" cy="20" r="20" fill="#D32F2F"/>
<mask id="mask0_1739_22206" style="mask-type:alpha" maskUnits="userSpaceOnUse" x="8" y="8" width="24" height="24">
<rect x="8" y="8" width="24" height="24" fill="#D9D9D9"/>
</mask>
<g mask="url(#mask0_1739_22206)">
<path d="M15.3077 28.4998C14.8106 28.4998 14.385 28.3228 14.031 27.9688C13.677 27.6148 13.5 27.1892 13.5 26.6921V13.9998H13.25C13.0375 13.9998 12.8594 13.9279 12.7156 13.7841C12.5719 13.6403 12.5 13.4621 12.5 13.2495C12.5 13.0369 12.5719 12.8588 12.7156 12.7152C12.8594 12.5716 13.0375 12.4998 13.25 12.4998H17C17 12.255 17.0862 12.0463 17.2586 11.8739C17.4311 11.7015 17.6397 11.6152 17.8846 11.6152H22.1154C22.3602 11.6152 22.5689 11.7015 22.7413 11.8739C22.9138 12.0463 23 12.255 23 12.4998H26.75C26.9625 12.4998 27.1406 12.5717 27.2843 12.7156C27.4281 12.8594 27.5 13.0376 27.5 13.2502C27.5 13.4628 27.4281 13.6409 27.2843 13.7844C27.1406 13.928 26.9625 13.9998 26.75 13.9998H26.5V26.6921C26.5 27.1892 26.3229 27.6148 25.9689 27.9688C25.6149 28.3228 25.1894 28.4998 24.6923 28.4998H15.3077ZM25 13.9998H15V26.6921C15 26.7818 15.0288 26.8556 15.0865 26.9133C15.1442 26.971 15.218 26.9998 15.3077 26.9998H24.6923C24.782 26.9998 24.8557 26.971 24.9134 26.9133C24.9711 26.8556 25 26.7818 25 26.6921V13.9998ZM18.1542 24.9998C18.3668 24.9998 18.5448 24.9279 18.6884 24.7842C18.832 24.6404 18.9038 24.4623 18.9038 24.2498V16.7498C18.9038 16.5373 18.8319 16.3592 18.6881 16.2154C18.5443 16.0717 18.3661 15.9998 18.1535 15.9998C17.9409 15.9998 17.7628 16.0717 17.6192 16.2154C17.4756 16.3592 17.4039 16.5373 17.4039 16.7498V24.2498C17.4039 24.4623 17.4758 24.6404 17.6196 24.7842C17.7634 24.9279 17.9416 24.9998 18.1542 24.9998ZM21.8465 24.9998C22.0591 24.9998 22.2371 24.9279 22.3807 24.7842C22.5243 24.6404 22.5961 24.4623 22.5961 24.2498V16.7498C22.5961 16.5373 22.5242 16.3592 22.3804 16.2154C22.2366 16.0717 22.0584 15.9998 21.8458 15.9998C21.6332 15.9998 21.4551 16.0717 21.3115 16.2154C21.1679 16.3592 21.0961 16.5373 21.0961 16.7498V24.2498C21.0961 24.4623 21.168 24.6404 21.3119 24.7842C21.4557 24.9279 21.6339 24.9998 21.8465 24.9998Z" fill="white"/>
</g>
</svg>
