<svg width="21" height="20" viewBox="0 0 21 20" fill="none" xmlns="http://www.w3.org/2000/svg">
<path d="M15.7496 4.75794C15.4246 4.43294 14.8996 4.43294 14.5746 4.75794L10.4996 8.82461L6.42461 4.74961C6.09961 4.42461 5.57461 4.42461 5.24961 4.74961C4.92461 5.07461 4.92461 5.59961 5.24961 5.92461L9.32461 9.99961L5.24961 14.0746C4.92461 14.3996 4.92461 14.9246 5.24961 15.2496C5.57461 15.5746 6.09961 15.5746 6.42461 15.2496L10.4996 11.1746L14.5746 15.2496C14.8996 15.5746 15.4246 15.5746 15.7496 15.2496C16.0746 14.9246 16.0746 14.3996 15.7496 14.0746L11.6746 9.99961L15.7496 5.92461C16.0663 5.60794 16.0663 5.07461 15.7496 4.75794Z" fill="black" fill-opacity="0.87"/>
</svg>
