<svg width="20" height="20" viewBox="0 0 20 20" fill="none" xmlns="http://www.w3.org/2000/svg">
<mask id="mask0_2591_9991" style="mask-type:alpha" maskUnits="userSpaceOnUse" x="0" y="0" width="20" height="20">
<rect width="20" height="20" fill="#D9D9D9"/>
</mask>
<g mask="url(#mask0_2591_9991)">
<path d="M8.81794 13.5455L14.4205 7.94294L13.5423 7.06476L8.81794 11.7891L6.44294 9.41411L5.56476 10.2923L8.81794 13.5455ZM10.002 17.9173C8.90708 17.9173 7.87789 17.7095 6.91444 17.2939C5.95098 16.8784 5.11292 16.3144 4.40023 15.6021C3.68754 14.8897 3.12332 14.052 2.70759 13.089C2.29185 12.126 2.08398 11.097 2.08398 10.002C2.08398 8.90708 2.29176 7.87789 2.70732 6.91444C3.12287 5.95098 3.68683 5.11292 4.39919 4.40024C5.11157 3.68754 5.94927 3.12333 6.9123 2.70759C7.87531 2.29185 8.90429 2.08398 9.99923 2.08398C11.0942 2.08398 12.1234 2.29176 13.0868 2.70732C14.0503 3.12287 14.8883 3.68683 15.601 4.39919C16.3137 5.11157 16.8779 5.94927 17.2937 6.9123C17.7094 7.87531 17.9173 8.90429 17.9173 9.99924C17.9173 11.0942 17.7095 12.1234 17.2939 13.0868C16.8784 14.0503 16.3144 14.8883 15.6021 15.601C14.8897 16.3137 14.052 16.8779 13.089 17.2937C12.126 17.7094 11.097 17.9173 10.002 17.9173Z" fill="#2E7D32"/>
</g>
</svg>
