<svg width="19" height="18" viewBox="0 0 19 18" fill="none" xmlns="http://www.w3.org/2000/svg">
<mask id="mask0_2591_6103" style="mask-type:alpha" maskUnits="userSpaceOnUse" x="0" y="0" width="19" height="18">
<rect x="0.5" width="18" height="18" fill="#D9D9D9"/>
</mask>
<g mask="url(#mask0_2591_6103)">
<path d="M9.50002 12.375V5.625C10.4365 5.625 11.2332 5.95336 11.8899 6.61009C12.5466 7.26683 12.875 8.06346 12.875 8.99998C12.875 9.93651 12.5466 10.7331 11.8899 11.3899C11.2332 12.0466 10.4365 12.375 9.50002 12.375ZM9.49876 16.125C10.4842 16.125 11.4105 15.938 12.2776 15.564C13.1447 15.19 13.899 14.6824 14.5404 14.0413C15.1818 13.4001 15.6896 12.6462 16.0638 11.7795C16.4379 10.9128 16.625 9.98669 16.625 9.00124C16.625 8.01579 16.438 7.08951 16.064 6.22241C15.69 5.3553 15.1824 4.60104 14.5413 3.95963C13.9002 3.3182 13.1462 2.81041 12.2795 2.43624C11.4128 2.06208 10.4867 1.875 9.50127 1.875C8.51582 1.875 7.58955 2.062 6.72245 2.436C5.85534 2.81 5.10107 3.31756 4.45966 3.95869C3.81824 4.59983 3.31044 5.35376 2.93628 6.22048C2.56212 7.08719 2.37504 8.01328 2.37504 8.99873C2.37504 9.98418 2.56204 10.9104 2.93604 11.7776C3.31004 12.6447 3.8176 13.3989 4.45872 14.0403C5.09986 14.6818 5.85379 15.1896 6.72052 15.5637C7.58723 15.9379 8.51331 16.125 9.49876 16.125ZM9.50002 15C7.82502 15 6.40627 14.4187 5.24377 13.2562C4.08127 12.0937 3.50002 10.675 3.50002 8.99998C3.50002 7.32498 4.08127 5.90623 5.24377 4.74373C6.40627 3.58123 7.82502 2.99998 9.50002 2.99998C11.175 2.99998 12.5938 3.58123 13.7563 4.74373C14.9188 5.90623 15.5 7.32498 15.5 8.99998C15.5 10.675 14.9188 12.0937 13.7563 13.2562C12.5938 14.4187 11.175 15 9.50002 15Z" fill="#FFB400"/>
</g>
</svg>
