<svg width="20" height="20" viewBox="0 0 20 20" fill="none" xmlns="http://www.w3.org/2000/svg">
<mask id="mask0_2642_24589" style="mask-type:alpha" maskUnits="userSpaceOnUse" x="0" y="0" width="20" height="20">
<rect width="20" height="20" fill="#D9D9D9"/>
</mask>
<g mask="url(#mask0_2642_24589)">
<path d="M4.42243 17.0826C4.00149 17.0826 3.64518 16.9368 3.35352 16.6451C3.06185 16.3535 2.91602 15.9972 2.91602 15.5762V4.42243C2.91602 4.00149 3.06185 3.64518 3.35352 3.35352C3.64518 3.06185 4.00149 2.91602 4.42243 2.91602H9.05381C9.23115 2.91602 9.37965 2.97585 9.49931 3.09552C9.61896 3.21517 9.67879 3.36367 9.67879 3.54102C9.67879 3.71836 9.61896 3.86686 9.49931 3.98652C9.37965 4.10617 9.23115 4.166 9.05381 4.166H4.42243C4.35832 4.166 4.29955 4.1927 4.24612 4.24612C4.1927 4.29955 4.16599 4.35832 4.16599 4.42243V15.5762C4.16599 15.6403 4.1927 15.6991 4.24612 15.7525C4.29955 15.806 4.35832 15.8327 4.42243 15.8327H15.5762C15.6403 15.8327 15.6991 15.806 15.7525 15.7525C15.806 15.6991 15.8327 15.6403 15.8327 15.5762V10.9448C15.8327 10.7675 15.8925 10.619 16.0121 10.4994C16.1318 10.3797 16.2803 10.3199 16.4576 10.3199C16.635 10.3199 16.7835 10.3797 16.9031 10.4994C17.0228 10.619 17.0826 10.7675 17.0826 10.9448V15.5762C17.0826 15.9972 16.9368 16.3535 16.6451 16.6451C16.3535 16.9368 15.9972 17.0826 15.5762 17.0826H4.42243ZM15.8327 5.04418L8.53779 12.3391C8.4224 12.4544 8.27737 12.5135 8.1027 12.5161C7.92802 12.5188 7.78032 12.4598 7.6596 12.3391C7.53888 12.2183 7.47852 12.072 7.47852 11.9C7.47852 11.728 7.53888 11.5816 7.6596 11.4609L14.9545 4.166H12.291C12.1136 4.166 11.9651 4.10617 11.8455 3.98652C11.7258 3.86686 11.666 3.71836 11.666 3.54102C11.666 3.36367 11.7258 3.21517 11.8455 3.09552C11.9651 2.97585 12.1136 2.91602 12.291 2.91602H16.3294C16.5442 2.91602 16.7234 2.98787 16.8671 3.13158C17.0108 3.27527 17.0826 3.45449 17.0826 3.66923V7.70768C17.0826 7.88503 17.0228 8.03353 16.9031 8.15318C16.7835 8.27284 16.635 8.33266 16.4576 8.33266C16.2803 8.33266 16.1318 8.27284 16.0121 8.15318C15.8925 8.03353 15.8327 7.88503 15.8327 7.70768V5.04418Z" fill="black" fill-opacity="0.87"/>
</g>
</svg>
