<svg width="18" height="18" viewBox="0 0 16 16" fill="none" xmlns="http://www.w3.org/2000/svg">
<path d="M6.66732 1.66666C6.04848 1.66666 5.45499 1.91249 5.0174 2.35008C4.57982 2.78766 4.33398 3.38116 4.33398 3.99999C4.33398 4.61883 4.57982 5.21233 5.0174 5.64991C5.45499 6.0875 6.04848 6.33333 6.66732 6.33333C7.28616 6.33333 7.87965 6.0875 8.31723 5.64991C8.75482 5.21233 9.00065 4.61883 9.00065 3.99999C9.00065 3.38116 8.75482 2.78766 8.31723 2.35008C7.87965 1.91249 7.28616 1.66666 6.66732 1.66666ZM3.00065 3.99999C3.00065 3.02753 3.38696 2.0949 4.07459 1.40727C4.76223 0.719637 5.69486 0.333328 6.66732 0.333328C7.63978 0.333328 8.57241 0.719637 9.26004 1.40727C9.94768 2.0949 10.334 3.02753 10.334 3.99999C10.334 4.97246 9.94768 5.90509 9.26004 6.59272C8.57241 7.28035 7.63978 7.66666 6.66732 7.66666C5.69486 7.66666 4.76223 7.28035 4.07459 6.59272C3.38696 5.90509 3.00065 4.97246 3.00065 3.99999ZM11.0007 8.66666C10.3818 8.66666 9.78832 8.91249 9.35073 9.35008C8.91315 9.78766 8.66732 10.3812 8.66732 11C8.66732 11.6188 8.91315 12.2123 9.35073 12.6499C9.78832 13.0875 10.3818 13.3333 11.0007 13.3333C11.6195 13.3333 12.213 13.0875 12.6506 12.6499C13.0882 12.2123 13.334 11.6188 13.334 11C13.334 10.3812 13.0882 9.78766 12.6506 9.35008C12.213 8.91249 11.6195 8.66666 11.0007 8.66666ZM7.33398 11C7.33398 10.5185 7.42882 10.0417 7.61309 9.59682C7.79736 9.15196 8.06744 8.74775 8.40793 8.40727C8.74841 8.06679 9.15262 7.7967 9.59748 7.61244C10.0423 7.42817 10.5191 7.33333 11.0007 7.33333C11.4822 7.33333 11.959 7.42817 12.4038 7.61244C12.8487 7.7967 13.2529 8.06679 13.5934 8.40727C13.9339 8.74775 14.2039 9.15196 14.3882 9.59682C14.5725 10.0417 14.6673 10.5185 14.6673 11C14.6673 11.9725 14.281 12.9051 13.5934 13.5927C12.9057 14.2804 11.9731 14.6667 11.0007 14.6667C10.0282 14.6667 9.09556 14.2804 8.40793 13.5927C7.72029 12.9051 7.33398 11.9725 7.33398 11ZM4.33398 9.66666C3.62674 9.66666 2.94846 9.94761 2.44837 10.4477C1.94827 10.9478 1.66732 11.6261 1.66732 12.3333H6.36732V13.6667H0.333984V12.3333C0.333984 11.2725 0.755412 10.255 1.50556 9.5049C2.2557 8.75476 3.27312 8.33333 4.33398 8.33333H6.33398V9.66666H4.33398ZM11.6673 9.50133V10.724L12.61 11.6667L11.6673 12.6093L10.334 11.276V9.50133H11.6673Z" fill="white"/>
</svg>
