<svg width="26" height="30" viewBox="0 0 26 30" fill="none" xmlns="http://www.w3.org/2000/svg">
<mask id="mask0_1717_1875" style="mask-type:alpha" maskUnits="userSpaceOnUse" x="-2" y="0" width="30" height="30">
<rect x="-2" width="30" height="30" fill="#D9D9D9"/>
</mask>
<g mask="url(#mask0_1717_1875)">
<path d="M9.09556 24.5188C8.5864 24.5188 8.14825 24.3347 7.78113 23.9663C7.41402 23.598 7.23047 23.1592 7.23047 22.6501C7.23047 22.1409 7.41464 21.7027 7.78297 21.3356C8.15132 20.9685 8.59008 20.7849 9.09925 20.7849C9.60844 20.7849 10.0466 20.9691 10.4137 21.3375C10.7808 21.7058 10.9644 22.1446 10.9644 22.6538C10.9644 23.1629 10.7802 23.6011 10.4118 23.9682C10.0435 24.3353 9.60475 24.5188 9.09556 24.5188ZM16.9001 24.5188C16.3909 24.5188 15.9527 24.3347 15.5856 23.9663C15.2185 23.598 15.0349 23.1592 15.0349 22.6501C15.0349 22.1409 15.2191 21.7027 15.5875 21.3356C15.9558 20.9685 16.3946 20.7849 16.9038 20.7849C17.4129 20.7849 17.8511 20.9691 18.2182 21.3375C18.5853 21.7058 18.7688 22.1446 18.7688 22.6538C18.7688 23.1629 18.5847 23.6011 18.2163 23.9682C17.848 24.3353 17.4092 24.5188 16.9001 24.5188ZM9.09556 16.8666C8.5864 16.8666 8.14825 16.6824 7.78113 16.3141C7.41402 15.9458 7.23047 15.507 7.23047 14.9978C7.23047 14.4886 7.41464 14.0505 7.78297 13.6834C8.15132 13.3163 8.59008 13.1327 9.09925 13.1327C9.60844 13.1327 10.0466 13.3169 10.4137 13.6852C10.7808 14.0536 10.9644 14.4923 10.9644 15.0015C10.9644 15.5107 10.7802 15.9488 10.4118 16.3159C10.0435 16.683 9.60475 16.8666 9.09556 16.8666ZM16.9001 16.8666C16.3909 16.8666 15.9527 16.6824 15.5856 16.3141C15.2185 15.9458 15.0349 15.507 15.0349 14.9978C15.0349 14.4886 15.2191 14.0505 15.5875 13.6834C15.9558 13.3163 16.3946 13.1327 16.9038 13.1327C17.4129 13.1327 17.8511 13.3169 18.2182 13.6852C18.5853 14.0536 18.7688 14.4923 18.7688 15.0015C18.7688 15.5107 18.5847 15.9488 18.2163 16.3159C17.848 16.683 17.4092 16.8666 16.9001 16.8666ZM9.09556 9.21437C8.5864 9.21437 8.14825 9.0302 7.78113 8.66184C7.41402 8.29351 7.23047 7.85475 7.23047 7.34556C7.23047 6.8364 7.41464 6.39825 7.78297 6.03113C8.15132 5.66402 8.59008 5.48047 9.09925 5.48047C9.60844 5.48047 10.0466 5.66464 10.4137 6.03297C10.7808 6.40132 10.9644 6.84008 10.9644 7.34925C10.9644 7.85844 10.7802 8.29658 10.4118 8.66369C10.0435 9.03081 9.60475 9.21437 9.09556 9.21437ZM16.9001 9.21437C16.3909 9.21437 15.9527 9.0302 15.5856 8.66184C15.2185 8.29351 15.0349 7.85475 15.0349 7.34556C15.0349 6.8364 15.2191 6.39825 15.5875 6.03113C15.9558 5.66402 16.3946 5.48047 16.9038 5.48047C17.4129 5.48047 17.8511 5.66464 18.2182 6.03297C18.5853 6.40132 18.7688 6.84008 18.7688 7.34925C18.7688 7.85844 18.5847 8.29658 18.2163 8.66369C17.848 9.03081 17.4092 9.21437 16.9001 9.21437Z" fill="white"/>
</g>
</svg>
