<svg width="16" height="18" viewBox="0 0 16 18" fill="none" xmlns="http://www.w3.org/2000/svg">
<path d="M1.75 15.75C1.3375 15.75 0.984375 15.6031 0.690625 15.3094C0.396875 15.0156 0.25 14.6625 0.25 14.25V3.75C0.25 3.3375 0.396875 2.98438 0.690625 2.69063C0.984375 2.39688 1.3375 2.25 1.75 2.25H4.9C5.0625 1.8 5.33437 1.4375 5.71562 1.1625C6.09687 0.8875 6.525 0.75 7 0.75C7.475 0.75 7.90312 0.8875 8.28438 1.1625C8.66562 1.4375 8.9375 1.8 9.1 2.25H12.25C12.6625 2.25 13.0156 2.39688 13.3094 2.69063C13.6031 2.98438 13.75 3.3375 13.75 3.75V8.775C13.5125 8.6625 13.2687 8.56563 13.0187 8.48438C12.7687 8.40312 12.5125 8.34375 12.25 8.30625V3.75H1.75V14.25H6.2875C6.325 14.525 6.38437 14.7875 6.46562 15.0375C6.54688 15.2875 6.64375 15.525 6.75625 15.75H1.75ZM1.75 14.25V3.75V8.30625V8.25V14.25ZM3.25 12.75H6.30625C6.34375 12.4875 6.40312 12.2313 6.48437 11.9813C6.56562 11.7312 6.65625 11.4875 6.75625 11.25H3.25V12.75ZM3.25 9.75H7.825C8.225 9.375 8.67187 9.0625 9.16562 8.8125C9.65937 8.5625 10.1875 8.39375 10.75 8.30625V8.25H3.25V9.75ZM3.25 6.75H10.75V5.25H3.25V6.75ZM7 3.1875C7.1625 3.1875 7.29687 3.13438 7.40312 3.02813C7.50937 2.92188 7.5625 2.7875 7.5625 2.625C7.5625 2.4625 7.50937 2.32812 7.40312 2.22187C7.29687 2.11563 7.1625 2.0625 7 2.0625C6.8375 2.0625 6.70312 2.11563 6.59687 2.22187C6.49062 2.32812 6.4375 2.4625 6.4375 2.625C6.4375 2.7875 6.49062 2.92188 6.59687 3.02813C6.70312 3.13438 6.8375 3.1875 7 3.1875ZM11.5 17.25C10.4625 17.25 9.57812 16.8844 8.84688 16.1531C8.11562 15.4219 7.75 14.5375 7.75 13.5C7.75 12.4625 8.11562 11.5781 8.84688 10.8469C9.57812 10.1156 10.4625 9.75 11.5 9.75C12.5375 9.75 13.4219 10.1156 14.1531 10.8469C14.8844 11.5781 15.25 12.4625 15.25 13.5C15.25 14.5375 14.8844 15.4219 14.1531 16.1531C13.4219 16.8844 12.5375 17.25 11.5 17.25ZM11.125 15.75H11.875V13.875H13.75V13.125H11.875V11.25H11.125V13.125H9.25V13.875H11.125V15.75Z" fill="white"/>
</svg>

