<svg width="40" height="40" viewBox="0 0 40 40" fill="none" xmlns="http://www.w3.org/2000/svg">
<g clip-path="url(#clip0_2363_19005)">
<rect width="40" height="40" rx="20" fill="#2196F3"/>
<circle cx="20" cy="20" r="20" fill="#2196F3"/>
<mask id="mask0_2363_19005" style="mask-type:alpha" maskUnits="userSpaceOnUse" x="8" y="8" width="24" height="24">
<rect x="8" y="8" width="24" height="24" fill="#D9D9D9"/>
</mask>
<g mask="url(#mask0_2363_19005)">
<path d="M19.25 20.75H14.25C14.0375 20.75 13.8594 20.6781 13.7156 20.5343C13.5719 20.3904 13.5 20.2122 13.5 19.9997C13.5 19.7871 13.5719 19.609 13.7156 19.4654C13.8594 19.3218 14.0375 19.25 14.25 19.25H19.25V14.25C19.25 14.0375 19.3219 13.8594 19.4657 13.7156C19.6095 13.5719 19.7877 13.5 20.0003 13.5C20.2129 13.5 20.391 13.5719 20.5346 13.7156C20.6782 13.8594 20.75 14.0375 20.75 14.25V19.25H25.75C25.9625 19.25 26.1406 19.3219 26.2843 19.4657C26.4281 19.6095 26.5 19.7877 26.5 20.0003C26.5 20.2129 26.4281 20.391 26.2843 20.5346C26.1406 20.6782 25.9625 20.75 25.75 20.75H20.75V25.75C20.75 25.9625 20.6781 26.1406 20.5343 26.2843C20.3904 26.4281 20.2122 26.5 19.9997 26.5C19.7871 26.5 19.609 26.4281 19.4654 26.2843C19.3218 26.1406 19.25 25.9625 19.25 25.75V20.75Z" fill="white"/>
</g>
</g>
<defs>
<clipPath id="clip0_2363_19005">
<rect width="40" height="40" rx="20" fill="white"/>
</clipPath>
</defs>
</svg>
