<svg width="30" height="30" viewBox="0 0 30 30" fill="none" xmlns="http://www.w3.org/2000/svg">
<rect width="30" height="30" rx="15" fill="#2196F3"/>
<mask id="mask0_2853_47801" style="mask-type:alpha" maskUnits="userSpaceOnUse" x="5" y="5" width="20" height="20">
<rect x="5" y="5" width="20" height="20" fill="#D9D9D9"/>
</mask>
<g mask="url(#mask0_2853_47801)">
</g>
<mask id="mask1_2853_47801" style="mask-type:alpha" maskUnits="userSpaceOnUse" x="5" y="5" width="20" height="20">
<rect x="5" y="5" width="20" height="20" fill="#D9D9D9"/>
</mask>
<g mask="url(#mask1_2853_47801)">
<path d="M8.58942 21.25C8.16848 21.25 7.81217 21.1041 7.52051 20.8125C7.22884 20.5208 7.08301 20.1645 7.08301 19.7435V10.2564C7.08301 9.83547 7.22884 9.47917 7.52051 9.1875C7.81217 8.89583 8.16848 8.75 8.58942 8.75H21.4099C21.8308 8.75 22.1871 8.89583 22.4788 9.1875C22.7705 9.47917 22.9163 9.83547 22.9163 10.2564V19.7435C22.9163 20.1645 22.7705 20.5208 22.4788 20.8125C22.1871 21.1041 21.8308 21.25 21.4099 21.25H8.58942ZM21.6663 11.2019L15.4051 15.2099C15.341 15.2462 15.2748 15.2748 15.2064 15.2956C15.138 15.3165 15.0691 15.3269 14.9997 15.3269C14.9302 15.3269 14.8613 15.3165 14.7929 15.2956C14.7245 15.2748 14.6583 15.2462 14.5942 15.2099L8.33299 11.2019V19.7435C8.33299 19.8183 8.35703 19.8798 8.40511 19.9279C8.4532 19.9759 8.51463 20 8.58942 20H21.4099C21.4847 20 21.5461 19.9759 21.5942 19.9279C21.6423 19.8798 21.6663 19.8183 21.6663 19.7435V11.2019ZM14.9997 14.1666L21.5381 9.99998H8.4612L14.9997 14.1666ZM8.33299 11.3942V10.4415V10.4663V10.4399V11.3942Z" fill="white"/>
</g>
</svg>
