<svg width="35" height="36" viewBox="0 0 35 36" fill="none" xmlns="http://www.w3.org/2000/svg">
<g filter="url(#filter0_b_2535_28410)">
<path d="M0 4.5C0 2.29086 1.79086 0.5 4 0.5H31C33.2091 0.5 35 2.29086 35 4.5V31.5C35 33.7091 33.2091 35.5 31 35.5H4C1.79086 35.5 0 33.7091 0 31.5V4.5Z" fill="#FAFAFA"/>
<path d="M0.25 4.5C0.25 2.42893 1.92893 0.75 4 0.75H31C33.0711 0.75 34.75 2.42893 34.75 4.5V31.5C34.75 33.5711 33.0711 35.25 31 35.25H4C1.92893 35.25 0.25 33.5711 0.25 31.5V4.5Z" stroke="#E0E0E0" stroke-width="0.5"/>
<path d="M12.25 9.5C11.388 9.5 10.5614 9.84241 9.9519 10.4519C9.34241 11.0614 9 11.888 9 12.75V24.25C9 25.112 9.34241 25.9386 9.9519 26.5481C10.5614 27.1576 11.388 27.5 12.25 27.5H18.022C17.7223 27.0325 17.484 26.5284 17.313 26H12.25C11.7859 26 11.3408 25.8156 11.0126 25.4874C10.6844 25.1592 10.5 24.7141 10.5 24.25V12.75C10.5 11.784 11.284 11 12.25 11H23.75C24.716 11 25.5 11.784 25.5 12.75V17.813C26.0284 17.984 26.5325 18.2223 27 18.522V12.75C27 11.888 26.6576 11.0614 26.0481 10.4519C25.4386 9.84241 24.612 9.5 23.75 9.5H12.25ZM18.5 15.75C18.5 15.5511 18.579 15.3603 18.7197 15.2197C18.8603 15.079 19.0511 15 19.25 15H22.75C22.9489 15 23.1397 15.079 23.2803 15.2197C23.421 15.3603 23.5 15.5511 23.5 15.75C23.5 15.9489 23.421 16.1397 23.2803 16.2803C23.1397 16.421 22.9489 16.5 22.75 16.5H19.25C19.0511 16.5 18.8603 16.421 18.7197 16.2803C18.579 16.1397 18.5 15.9489 18.5 15.75ZM16.78 15.28C16.8537 15.2113 16.9128 15.1285 16.9538 15.0365C16.9948 14.9445 17.0168 14.8452 17.0186 14.7445C17.0204 14.6438 17.0018 14.5438 16.9641 14.4504C16.9264 14.357 16.8703 14.2722 16.799 14.201C16.7278 14.1297 16.643 14.0736 16.5496 14.0359C16.4562 13.9982 16.3562 13.9796 16.2555 13.9814C16.1548 13.9832 16.0555 14.0052 15.9635 14.0462C15.8715 14.0872 15.7887 14.1463 15.72 14.22L14.25 15.69L13.78 15.22C13.6378 15.0875 13.4498 15.0154 13.2555 15.0188C13.0612 15.0223 12.8758 15.101 12.7384 15.2384C12.601 15.3758 12.5223 15.5612 12.5188 15.7555C12.5154 15.9498 12.5875 16.1378 12.72 16.28L13.72 17.28C13.8606 17.4205 14.0512 17.4993 14.25 17.4993C14.4488 17.4993 14.6394 17.4205 14.78 17.28L16.78 15.28ZM16.78 19.72C16.9205 19.8606 16.9993 20.0512 16.9993 20.25C16.9993 20.4488 16.9205 20.6394 16.78 20.78L14.78 22.78C14.6394 22.9205 14.4488 22.9993 14.25 22.9993C14.0512 22.9993 13.8606 22.9205 13.72 22.78L12.72 21.78C12.6463 21.7113 12.5872 21.6285 12.5462 21.5365C12.5052 21.4445 12.4832 21.3452 12.4814 21.2445C12.4796 21.1438 12.4982 21.0438 12.5359 20.9504C12.5736 20.857 12.6297 20.7722 12.701 20.701C12.7722 20.6297 12.857 20.5736 12.9504 20.5359C13.0438 20.4982 13.1438 20.4796 13.2445 20.4814C13.3452 20.4832 13.4445 20.5052 13.5365 20.5462C13.6285 20.5872 13.7113 20.6463 13.78 20.72L14.25 21.19L15.72 19.72C15.8606 19.5795 16.0512 19.5007 16.25 19.5007C16.4488 19.5007 16.6394 19.5795 16.78 19.72ZM29 24C29 22.5413 28.4205 21.1424 27.3891 20.1109C26.3576 19.0795 24.9587 18.5 23.5 18.5C22.0413 18.5 20.6424 19.0795 19.6109 20.1109C18.5795 21.1424 18 22.5413 18 24C18 25.4587 18.5795 26.8576 19.6109 27.8891C20.6424 28.9205 22.0413 29.5 23.5 29.5C24.9587 29.5 26.3576 28.9205 27.3891 27.8891C28.4205 26.8576 29 25.4587 29 24ZM24 24.5L24.001 27.003C24.001 27.1356 23.9483 27.2628 23.8546 27.3566C23.7608 27.4503 23.6336 27.503 23.501 27.503C23.3684 27.503 23.2412 27.4503 23.1474 27.3566C23.0537 27.2628 23.001 27.1356 23.001 27.003V24.5H20.496C20.3634 24.5 20.2362 24.4473 20.1424 24.3536C20.0487 24.2598 19.996 24.1326 19.996 24C19.996 23.8674 20.0487 23.7402 20.1424 23.6464C20.2362 23.5527 20.3634 23.5 20.496 23.5H23V21C23 20.8674 23.0527 20.7402 23.1464 20.6464C23.2402 20.5527 23.3674 20.5 23.5 20.5C23.6326 20.5 23.7598 20.5527 23.8536 20.6464C23.9473 20.7402 24 20.8674 24 21V23.5H26.497C26.6296 23.5 26.7568 23.5527 26.8506 23.6464C26.9443 23.7402 26.997 23.8674 26.997 24C26.997 24.1326 26.9443 24.2598 26.8506 24.3536C26.7568 24.4473 26.6296 24.5 26.497 24.5H24Z" fill="#2196F3"/>
</g>
<defs>
<filter id="filter0_b_2535_28410" x="-44" y="-43.5" width="123" height="123" filterUnits="userSpaceOnUse" color-interpolation-filters="sRGB">
<feFlood flood-opacity="0" result="BackgroundImageFix"/>
<feGaussianBlur in="BackgroundImageFix" stdDeviation="22"/>
<feComposite in2="SourceAlpha" operator="in" result="effect1_backgroundBlur_2535_28410"/>
<feBlend mode="normal" in="SourceGraphic" in2="effect1_backgroundBlur_2535_28410" result="shape"/>
</filter>
</defs>
</svg>
