<svg width="20" height="20" viewBox="0 0 20 20" fill="none" xmlns="http://www.w3.org/2000/svg">
<mask id="mask0_2864_19338" style="mask-type:alpha" maskUnits="userSpaceOnUse" x="0" y="0" width="20" height="20">
<rect y="20" width="20" height="20" transform="rotate(-90 0 20)" fill="#D9D9D9"/>
</mask>
<g mask="url(#mask0_2864_19338)">
<path d="M12.2305 9.99963C12.2305 10.1001 12.2145 10.1935 12.1824 10.2801C12.1504 10.3666 12.0953 10.4489 12.0173 10.5269L8.27216 14.272C8.15679 14.3874 8.01176 14.4465 7.83708 14.4491C7.66241 14.4518 7.51472 14.3928 7.39399 14.272C7.27326 14.1513 7.21289 14.005 7.21289 13.833C7.21289 13.661 7.27326 13.5146 7.39399 13.3939L10.7882 9.99963L7.39399 6.60538C7.27861 6.49001 7.21958 6.34498 7.21691 6.1703C7.21423 5.99563 7.27326 5.84794 7.39399 5.72722C7.51472 5.60648 7.66108 5.54611 7.83308 5.54611C8.00508 5.54611 8.15144 5.60648 8.27216 5.72722L12.0173 9.4724C12.0953 9.55039 12.1504 9.63265 12.1824 9.71919C12.2145 9.80572 12.2305 9.8992 12.2305 9.99963Z" fill="black" fill-opacity="0.87"/>
</g>
</svg>
